<svg width="777" height="778" viewBox="0 0 777 778" fill="none" xmlns="http://www.w3.org/2000/svg">
<circle cx="388.5" cy="389" r="330" fill="#FBCE51"/>
<g style="mix-blend-mode:overlay">
<path d="M531.036 672.056L530.644 671.238L532.141 670.213L527.962 661.862L527.629 664.624L525.724 672.874L525.908 673.33L527.467 672.831L527.859 673.649L523.262 675.982L522.87 675.164L524.126 674.279L518.979 663.835L517.515 664.359L517.123 663.541L521.815 661.233L522.207 662.051L520.856 662.911L525.105 671.384L525.387 668.811L527.343 660.372L526.995 659.769L525.315 660.337L524.923 659.519L529.615 657.212L530.007 658.03L528.656 658.89L533.803 669.334L535.242 668.905L535.634 669.723L531.036 672.056Z" fill="black"/>
<path d="M519.66 677.258C519.153 677.632 518.791 677.84 518.43 678.049C518.068 678.258 517.707 678.466 517.371 678.58C515.976 679.225 514.778 679.515 513.802 679.355C512.826 679.196 512.142 678.707 511.706 677.673C511.34 676.76 511.258 675.924 511.583 675.094C511.907 674.264 512.491 673.606 513.239 673.093C512.206 673.529 511.274 673.585 510.418 673.356C509.589 673.032 509.025 672.473 508.633 671.655C508.058 670.381 508.028 669.354 508.498 668.36C508.968 667.365 510.008 666.523 511.644 665.74C512.342 665.417 513.014 665.19 513.54 665.127C514.092 664.969 514.618 664.907 514.928 664.888C515.239 664.869 515.454 664.825 515.549 664.851L516.547 667.97L515.729 668.362L514.236 666.332C513.545 666.249 512.778 666.451 511.744 666.887C510.952 667.184 510.514 667.678 510.336 668.343C510.157 669.008 510.264 669.75 510.631 670.663C510.953 671.36 511.422 671.893 512.061 672.166C512.701 672.44 513.538 672.358 514.571 671.922L515.725 671.417L516.187 672.355L515.153 672.791C514.697 672.974 514.31 673.278 513.897 673.677C513.58 674.101 513.358 674.551 513.23 675.026C513.198 675.527 513.235 676.148 513.488 676.725C513.785 677.517 514.279 677.955 514.849 678.108C515.419 678.261 516.066 678.129 516.858 677.832C517.34 677.553 517.797 677.37 518.089 677.041C518.381 676.712 518.552 676.452 518.603 676.262L518.25 674.538L519.309 674.007L520.65 676.607C520.529 676.676 520.168 676.885 519.66 677.258Z" fill="black"/>
<path d="M504.437 682.754L505.946 682.445L506.312 683.358L503.935 684.249C503.573 684.457 503.022 684.615 502.445 684.868C501.868 685.121 501.506 685.33 501.265 685.469C499.68 686.063 498.412 686.232 497.557 686.003C496.702 685.774 496.043 685.19 495.702 684.182C495.405 683.389 495.324 682.553 495.623 681.818C495.826 681.058 496.41 680.399 497.133 679.982C496.005 680.392 495.048 680.543 494.218 680.219C493.388 679.895 492.729 679.311 492.388 678.303C491.883 677.149 491.973 676.053 492.563 674.989C493.154 673.925 494.315 673.013 496.236 672.306C496.693 672.123 497.029 672.009 497.46 671.921C498.347 671.649 498.924 671.396 499.14 671.352L501.423 670.436L501.694 671.324L500.273 672.063L504.437 682.754ZM496.533 673.098C495.379 673.604 494.631 674.116 494.237 674.826C493.843 675.535 493.95 676.277 494.221 677.164C494.588 678.077 495.056 678.61 495.696 678.884C496.336 679.157 497.172 679.076 498.206 678.639C499.36 678.134 500.127 677.932 500.489 677.723L498.524 672.511C498.118 672.505 497.541 672.757 496.533 673.098ZM499.796 679.167L498.883 679.534C498.09 679.831 497.557 680.299 497.284 680.939C497.011 681.579 497.023 682.295 497.415 683.113C497.712 683.905 498.18 684.438 498.725 684.686C499.269 684.934 500.106 684.853 501.14 684.417C501.596 684.233 501.958 684.025 502.414 683.841L502.776 683.633L500.925 678.757C500.684 678.896 500.348 679.01 499.796 679.167Z" fill="black"/>
<path d="M489.599 689.473L487.678 690.181L479.268 679.371L478.095 679.566L477.824 678.679L482.528 677.087L482.8 677.975L481.405 678.62L483.107 681.011L488.268 679.236L488.22 676.372L486.617 676.655L486.345 675.767L490.593 674.359L490.865 675.247L489.806 675.778L489.599 689.473ZM487.612 687.005L488.567 688.382L488.43 686.613L488.273 680.358L483.784 681.905L487.612 687.005Z" fill="black"/>
<path d="M474.983 680.158C476.123 680.464 476.997 681.004 477.77 681.923C478.542 682.843 479.168 683.928 479.502 685.342C479.862 686.66 479.936 687.902 479.7 689.163C479.464 690.424 478.899 691.393 478.074 692.191C477.249 692.988 476.26 693.64 475.036 694.025C474.149 694.297 472.976 694.492 471.639 694.541L471.017 694.578L470.261 691.32L471.484 690.934L472.642 693.078C472.832 693.129 473.212 693.231 473.617 693.237C474.023 693.244 474.575 693.087 475.221 692.954C475.988 692.752 476.616 692.309 477.08 691.721C477.543 691.132 477.867 690.302 477.906 689.396C477.945 688.489 477.845 687.342 477.53 686.239C477.214 685.136 476.778 684.102 476.171 683.329C475.563 682.555 474.93 681.876 474.195 681.577C473.461 681.278 472.58 681.144 471.692 681.416C471.046 681.548 470.564 681.826 470.323 681.965C470.082 682.104 469.79 682.434 469.618 682.693L469.394 684.67L468.222 684.865L467.908 682.235C468.123 682.191 468.485 681.982 468.967 681.704C469.354 681.4 469.715 681.191 470.172 681.008C470.533 680.799 471.085 680.642 471.636 680.484C472.695 679.953 473.843 679.853 474.983 680.158Z" fill="black"/>
<path d="M460.896 694.718C460.521 695.738 459.956 696.707 459.277 697.34C458.477 698.042 457.634 698.529 456.677 698.68C455.479 698.97 454.382 698.88 453.457 698.531C452.533 698.181 451.684 697.546 451.007 696.652C450.33 695.757 449.799 694.698 449.56 693.31C449.251 691.801 449.202 690.464 449.412 689.298C449.648 688.037 450.214 687.068 450.943 686.245C451.673 685.422 452.612 684.961 453.715 684.645C454.913 684.355 456.035 684.35 457.055 684.725C458.075 685.1 458.828 685.71 459.531 686.509C460.208 687.403 460.739 688.462 460.978 689.851L463.9 689.208L462.677 683.889L461.099 684.077L460.923 683.215L465.931 682.011L466.107 682.873L464.642 683.397L467.316 694.707L468.774 694.588L468.95 695.45L464.063 696.585L463.886 695.723L465.351 695.199L464.216 690.311L461.268 691.049C461.292 692.481 461.176 693.672 460.896 694.718ZM458.829 695.59C459.255 694.38 459.257 692.853 458.79 690.792C458.342 689.043 457.698 687.648 456.805 686.797C455.913 685.947 454.893 685.572 453.599 685.836C452.401 686.127 451.697 686.855 451.296 687.969C450.896 689.084 450.963 690.732 451.43 692.793C451.878 694.542 452.428 695.912 453.32 696.762C454.187 697.708 455.233 697.988 456.336 697.672C457.603 697.502 458.403 696.8 458.829 695.59Z" fill="black"/>
<path d="M439.622 693.906C439.058 693.348 438.235 692.618 437.368 691.673C436.735 690.994 436.362 690.487 436.033 690.195C435.704 689.903 435.444 689.731 435.254 689.68L434.563 689.597L434.387 688.735L436.637 688.319C436.948 688.301 437.302 688.498 437.701 688.91C438.1 689.323 438.733 690.001 439.41 690.896C440.252 691.936 440.884 692.615 441.448 693.173C441.916 693.706 442.366 693.929 442.797 693.841L443.97 693.645L443.032 688.403L441.384 688.471L441.207 687.609L446.234 686.715L446.385 687.672L444.946 688.101L446.973 699.543L448.5 699.545L448.651 700.502L443.745 701.326L443.645 700.179L445.11 699.655L444.197 694.318L442.593 694.601L439.772 700.567L441.325 700.474L441.476 701.431L436.975 702.263L436.824 701.305L438.264 700.876L441.326 694.77C440.825 694.738 440.211 694.37 439.622 693.906Z" fill="black"/>
<path d="M431.267 689.733C432.262 690.203 432.99 690.907 433.521 691.966C434.078 692.93 434.463 694.154 434.702 695.542C434.941 696.93 434.8 698.217 434.374 699.427C433.973 700.541 433.313 701.485 432.514 702.187C431.619 702.865 430.681 703.326 429.413 703.496C427.499 703.798 425.883 703.365 424.756 702.248C423.63 701.131 422.82 699.59 422.595 697.391C422.381 695.907 422.522 694.621 422.923 693.506C423.349 692.296 423.984 691.448 424.808 690.65C425.703 689.973 426.736 689.537 427.909 689.342C429.177 689.172 430.273 689.262 431.267 689.733ZM432.04 700.533C432.562 699.348 432.753 697.872 432.502 695.767C432.296 693.879 431.746 692.509 430.904 691.469C430.063 690.428 429.043 690.053 427.87 690.248C426.697 690.443 425.828 691.025 425.307 692.21C424.786 693.394 424.569 694.966 424.845 696.975C425.052 698.864 425.602 700.234 426.469 701.179C427.241 702.099 428.235 702.569 429.503 702.399C430.625 702.394 431.519 701.717 432.04 700.533Z" fill="black"/>
<path d="M419.894 703.288L421.396 703.385L421.452 704.316L418.942 704.56C418.537 704.554 417.985 704.711 417.364 704.749C416.717 704.881 416.312 704.874 416.096 704.918C414.423 705.081 413.136 704.94 412.358 704.426C411.579 703.912 411.161 703.189 411.036 702.136C410.954 701.3 411.184 700.444 411.552 699.83C411.92 699.216 412.669 698.703 413.556 698.432C412.409 698.532 411.433 698.372 410.654 697.858C409.875 697.344 409.483 696.526 409.427 695.594C409.353 694.352 409.633 693.306 410.483 692.414C411.334 691.521 412.703 690.972 414.782 690.816C415.213 690.727 415.619 690.734 416.119 690.766C417.051 690.711 417.672 690.673 417.862 690.724L420.372 690.48L420.428 691.412L418.919 691.72L419.894 703.288ZM414.908 691.868C413.665 691.942 412.752 692.309 412.289 692.898C411.731 693.461 411.527 694.221 411.678 695.178C411.734 696.11 412.056 696.808 412.575 697.151C413.095 697.493 413.95 697.723 415.002 697.597C416.244 697.523 417.081 697.441 417.417 697.327L416.961 691.807C416.581 691.705 415.96 691.742 414.908 691.868ZM416.465 698.6L415.413 698.726C414.576 698.807 413.879 699.129 413.536 699.649C413.193 700.168 412.989 700.928 413.071 701.765C413.152 702.602 413.379 703.274 413.899 703.616C414.418 703.959 415.178 704.163 416.23 704.038C416.661 703.949 417.162 703.982 417.618 703.798L418.05 703.71L417.612 698.5C417.302 698.519 416.991 698.537 416.465 698.6Z" fill="black"/>
<path d="M390.541 706.016L390.485 705.084L392.089 704.801L391.736 693.196L389.949 693.023L389.893 692.091L395.121 691.965L395.177 692.896L393.599 693.084L393.927 704.784L399.872 704.645L399.544 692.946L397.852 692.798L397.796 691.866L403.025 691.74L403.081 692.671L401.597 692.885L401.951 704.49L403.522 704.707L403.578 705.639L390.541 706.016Z" fill="black"/>
<path d="M386.134 692.816C386.982 693.451 387.685 694.25 388.095 695.379C388.531 696.412 388.701 697.68 388.725 699.112C388.653 700.519 388.417 701.78 387.826 702.844C387.236 703.908 386.506 704.731 385.542 705.287C384.578 705.844 383.475 706.16 382.353 706.165C380.42 706.156 378.976 705.463 377.97 704.277C376.989 702.996 376.516 701.341 376.506 699.097C376.482 697.665 376.839 696.335 377.429 695.271C378.02 694.207 378.775 693.289 379.739 692.732C380.703 692.176 381.806 691.86 383.023 691.88C384.24 691.901 385.285 692.181 386.134 692.816ZM385.379 703.614C386.065 702.576 386.472 701.055 386.506 699.027C386.49 697.189 386.181 695.68 385.555 694.596C384.929 693.511 383.96 692.946 382.743 692.926C381.526 692.905 380.562 693.462 379.876 694.5C379.191 695.539 378.758 697.155 378.724 699.183C378.715 701.115 378.954 702.504 379.675 703.614C380.301 704.698 381.27 705.263 382.487 705.284C383.66 705.089 384.598 704.627 385.379 703.614Z" fill="black"/>
<path d="M370.627 696.708C370.99 694.971 371.416 693.762 372.051 692.913C372.369 692.489 372.661 692.16 373.022 691.951C373.384 691.742 373.815 691.654 374.22 691.661C374.816 691.719 375.222 691.725 375.507 691.802L375.505 693.329C375.22 693.253 374.719 693.22 374.123 693.163C373.933 693.112 373.718 693.156 373.477 693.295C373.236 693.434 373.09 693.599 372.944 693.763C371.846 695.201 371.246 698.198 370.956 702.703L370.859 704.205L373.001 704.575L372.962 705.482L362.138 704.822L362.177 703.916L363.945 703.779L364.713 692.169L362.857 691.875L362.896 690.969L368.593 691.375L368.554 692.281L366.595 692.368L365.827 703.977L369.642 704.185L369.79 702.493C370.065 700.326 370.289 698.349 370.627 696.708Z" fill="black"/>
<path d="M358.749 703.405L360.269 703.812L360.135 704.693L350.63 703.674L350.703 700.74L351.8 700.83L352.127 702.649L356.746 703.276L357.336 698.035L354.262 697.721L353.855 699.242L352.854 699.177L353.283 694.912L354.285 694.977L354.352 696.625L357.4 697.034L357.971 691.483L352.679 691.084L351.473 693.307L350.383 692.811L351.249 689.58L361.54 690.708L361.406 691.589L359.878 691.587L358.749 703.405Z" fill="black"/>
<path d="M343.313 701.713L346.481 702.053L347.69 698.302L348.855 698.513L347.842 703.436L336.297 701.667L336.81 696.711L337.976 696.922L338.028 700.908L341.24 701.464L342.94 689.798L340.349 689.206L340.483 688.325L347.529 689.398L347.395 690.279L344.987 690.143L343.313 701.713Z" fill="black"/>
<path d="M329.983 692.54L330.864 692.674C331.2 692.56 331.612 692.161 331.955 691.642C332.298 691.123 332.882 690.464 333.396 689.685C333.91 688.906 334.374 688.318 334.691 687.893C335.008 687.469 335.249 687.33 335.439 687.381L337.961 687.853L337.827 688.734L337.085 688.841C336.87 688.885 336.654 688.929 336.362 689.258C336.096 689.492 335.658 689.986 335.195 690.575C334.585 691.328 334.122 691.917 333.71 692.316C333.272 692.81 332.91 693.018 332.454 693.202C333.258 693.621 333.821 694.179 334.144 694.877C334.466 695.574 334.548 696.411 334.388 697.387C334.101 698.838 333.441 699.781 332.528 700.148C331.52 700.489 330.277 700.563 328.636 700.225C328.256 700.124 327.876 700.022 327.306 699.869C326.736 699.716 326.261 699.589 325.975 699.512L323.359 699.015L323.493 698.134L325.09 698.256L327.334 686.839L325.649 686.285L325.783 685.405L331.207 686.45L331.073 687.331L329.286 687.158L328.393 692.012L329.983 692.54ZM327.44 698.988C328.01 699.141 328.485 699.268 328.866 699.37C329.841 699.53 330.558 699.518 331.16 699.17C331.763 698.822 332.131 698.208 332.316 697.137C332.476 696.161 332.394 695.325 331.951 694.697C331.508 694.069 330.894 693.7 329.944 693.446C328.968 693.286 328.303 693.108 327.992 693.127L326.895 698.74L327.44 698.988Z" fill="black"/>
<path d="M316.859 696.662L320.046 697.312L321.54 693.638L322.775 693.969L321.286 698.765L309.996 696.045L310.915 691.097L312.055 691.402L311.702 695.382L314.838 696.222L317.513 684.716L314.973 683.934L315.202 683.079L322.191 684.747L321.961 685.603L319.509 685.251L316.859 696.662Z" fill="black"/>
<path d="M304.855 681.019C305.653 681.844 306.089 682.878 306.284 684.05C306.479 685.223 306.338 686.509 305.956 687.935C305.6 689.265 304.888 690.399 304.064 691.196C303.213 692.089 302.154 692.62 301.051 692.936C299.853 693.226 298.757 693.136 297.521 692.805C296.571 692.55 295.576 692.08 294.322 691.438L293.778 691.19L294.928 688.036L296.164 688.367L295.933 690.749C296.072 690.99 296.332 691.162 296.686 691.359C297.041 691.556 297.586 691.803 298.156 691.956C298.916 692.16 299.632 692.148 300.4 691.946C301.072 691.719 301.82 691.206 302.334 690.428C302.944 689.674 303.414 688.68 303.719 687.539C304.025 686.399 304.21 685.328 304.18 684.301C304.149 683.275 303.878 682.387 303.46 681.664C303.043 680.941 302.359 680.452 301.409 680.198C300.743 680.019 300.268 679.892 299.863 679.885C299.457 679.878 299.121 679.992 298.88 680.131L297.661 681.638L296.572 681.142L297.735 678.704C298.02 678.78 298.425 678.787 298.926 678.819C299.427 678.852 299.832 678.858 300.238 678.865C300.643 678.872 301.214 679.025 301.784 679.178C303.019 679.509 304.083 680.099 304.855 681.019Z" fill="black"/>
<path d="M286.416 689.014L286.74 688.184L288.571 688.573L291.656 679.723L289.48 681.381L282.269 685.866L282.141 686.341L283.68 687.059L283.356 687.889L278.516 686.185L278.841 685.355L280.291 685.642L284.056 674.631L282.612 673.939L282.937 673.109L287.872 674.839L287.547 675.669L285.906 675.331L282.796 684.276L284.852 682.687L292.278 678.159L292.457 677.493L290.823 676.75L291.147 675.92L296.082 677.65L295.757 678.48L294.211 678.167L290.446 689.178L291.796 689.845L291.471 690.674L286.416 689.014Z" fill="black"/>
<path d="M267.323 681.963L268.976 677.313L270.186 677.739L269.288 681.471L273.032 683.085L277.392 672.133L274.409 670.722L274.733 669.892L281.562 672.537L281.238 673.367L279.242 672.832L275.027 683.62L276.801 684.604L276.476 685.434L267.323 681.963Z" fill="black"/>
<path d="M264.784 679.653L265.987 680.485L265.663 681.315L261.02 679.256L261.344 678.426L262.865 678.833L264.898 674.285L258.881 671.654L256.847 676.202L258.146 677.06L257.821 677.889L253.273 675.856L253.598 675.026L255.023 675.408L259.713 664.747L258.389 663.985L258.714 663.156L263.262 665.189L262.937 666.019L261.442 665.516L259.186 670.514L265.204 673.145L267.46 668.147L266.041 667.36L266.365 666.53L271.103 668.614L270.779 669.444L269.379 668.967L264.784 679.653Z" fill="black"/>
<path d="M247.073 672.768L245.274 671.879L246.982 658.28L246.039 657.62L246.458 656.816L250.86 659.014L250.441 659.818L248.946 659.316L248.492 662.148L253.344 664.568L255.336 662.454L253.943 661.572L254.362 660.767L258.315 662.743L257.896 663.547L256.781 663.147L247.073 672.768ZM247.317 669.574L246.979 671.215L248.147 669.899L252.519 665.366L248.307 663.219L247.317 669.574Z" fill="black"/>
<path d="M239.763 658.994C240.835 657.652 241.806 656.69 242.675 656.108C243.157 655.83 243.493 655.716 243.924 655.628C244.33 655.635 244.71 655.736 245.16 655.959C245.704 656.207 246.034 656.499 246.293 656.67L245.721 658.045C245.461 657.873 245.107 657.676 244.493 657.308C244.328 657.162 244.138 657.111 243.922 657.155C243.707 657.199 243.491 657.243 243.25 657.382C241.709 658.192 239.83 660.642 237.544 664.613L236.782 665.937L238.574 667.232L238.155 668.036L228.769 662.771L229.188 661.967L230.848 662.615L236.532 652.425L234.974 651.396L235.393 650.592L240.454 653.374L240.035 654.178L238.305 653.409L232.646 663.505L235.934 665.302L236.747 663.788C237.636 661.99 238.69 660.337 239.763 658.994Z" fill="black"/>
<path d="M211.714 652.294L212.228 651.515L213.863 652.258L220.066 642.411L218.724 641.338L219.238 640.559L223.842 643.524L223.328 644.303L221.789 643.585L215.585 653.433L216.927 654.505L216.413 655.284L211.714 652.294ZM224.527 653.893C223.229 653.036 222.456 652.116 222.115 651.108C221.774 650.1 221.96 649.029 222.671 647.896C223.407 646.667 224.397 646.016 225.569 645.821C226.742 645.625 227.978 645.957 229.301 646.719C229.466 646.865 229.656 646.915 229.821 647.061C229.985 647.207 230.15 647.353 230.34 647.404C230.929 647.868 231.448 648.211 231.872 648.528L234.044 649.925L233.53 650.704L232.086 650.011L225.882 659.859L227.034 660.88L226.52 661.659L221.986 658.815L222.5 658.036L224.229 658.805L226.534 655.144L224.527 653.893ZM229.87 648.399C229.705 648.253 229.445 648.081 228.996 647.859C228.122 647.319 227.266 647.09 226.499 647.292C225.732 647.494 225.079 648.032 224.419 648.975C223.879 649.849 223.675 650.61 223.877 651.377C224.079 652.144 224.617 652.797 225.491 653.337L227.144 654.391L230.503 649.078C230.294 648.716 230.129 648.57 229.87 648.399Z" fill="black"/>
<path d="M205.276 646.29L206.308 647.382L205.793 648.161L201.716 645.133L202.23 644.354L203.649 645.141L206.676 641.064L201.396 637.204L198.368 641.282L199.399 642.373L198.885 643.152L194.902 640.15L195.417 639.371L196.766 640.038L203.653 630.679L202.596 629.683L203.11 628.904L207.188 631.932L206.674 632.711L205.35 631.949L202.151 636.286L207.432 640.146L210.631 635.808L209.409 634.666L209.924 633.887L214.096 636.94L213.582 637.719L212.258 636.957L205.276 646.29Z" fill="black"/>
<path d="M189.438 635.833L187.862 634.494L192.447 621.565L191.675 620.645L192.258 619.986L196.121 623.058L195.511 623.812L194.213 622.955L193.19 625.634L197.451 629.119L199.912 627.537L198.785 626.42L199.369 625.762L202.807 628.517L202.223 629.175L201.159 628.584L189.438 635.833ZM190.443 632.843L189.82 634.408L191.222 633.357L196.436 629.865L192.764 626.844L190.443 632.843Z" fill="black"/>
<path d="M178.335 624.812L179.645 626.385L179.061 627.043L175.396 623.617L179.157 615.661L180.339 613.533L178.334 614.931L170.743 619.314L167.147 616.008L167.731 615.35L169.428 616.619L176.246 607.14L175.17 605.833L175.754 605.175L179.653 608.868L179.07 609.526L177.702 608.549L172.649 615.241L170.453 618.116L172.863 616.725L181.849 611.697L182.742 612.547L178.897 621.194L177.29 624.532L179.98 622.095L186.28 616.449L185.014 615.091L185.598 614.433L189.194 617.739L188.61 618.398L187.337 617.445L178.335 624.812Z" fill="black"/>
<path d="M162.007 610.862L160.577 609.358L166.701 597.147L166.049 596.157L166.728 595.524L170.152 599.09L169.473 599.723L168.201 598.771L166.797 601.349L170.646 605.232L173.246 603.891L172.265 602.61L172.944 601.977L176.064 605.156L175.385 605.789L174.442 605.129L162.007 610.862ZM163.392 607.974L162.579 609.488L164.12 608.678L169.777 605.814L166.422 602.369L163.392 607.974Z" fill="black"/>
<path d="M155.8 602.476L156.591 603.707L155.912 604.34L154.273 602.474C153.943 602.182 153.64 601.796 153.31 601.504C152.817 601.066 152.348 600.533 151.949 600.12C150.779 598.788 150.178 597.609 150.148 596.582C150.117 595.555 150.657 594.681 151.628 593.719C152.401 593.111 153.15 592.599 153.987 592.518C154.849 592.341 155.73 592.475 156.559 592.8C157.389 593.124 158.143 593.733 158.845 594.533C159.079 594.799 159.314 595.065 159.548 595.332C159.782 595.598 159.921 595.839 160.016 595.865L163.093 593.124L161.505 591.069L162.184 590.436L166.26 594.991L165.581 595.624L164.429 594.603L155.8 602.476ZM158.141 595.26C157.508 594.582 156.703 594.162 155.918 594.054C155.132 593.945 154.098 594.381 153.128 595.343C152.328 596.046 151.934 596.755 151.946 597.471C151.958 598.187 152.35 599.005 153.053 599.805C153.287 600.071 153.616 600.363 153.945 600.655C154.11 600.801 154.274 600.947 154.344 601.068L159.286 596.688C159.052 596.421 158.679 595.914 158.141 595.26Z" fill="black"/>
<path d="M156.1 584.63C156.295 585.803 156.11 586.874 155.519 587.938C155.024 589.027 154.148 590.015 153.082 590.951C152.016 591.888 150.862 592.394 149.69 592.589C148.517 592.784 147.3 592.763 146.211 592.268C145.096 591.867 144.152 591.207 143.311 590.166C142.703 589.393 142.052 588.403 141.451 587.224L141.198 586.647L143.881 584.615L144.653 585.535L143.143 587.371C143.187 587.587 143.206 587.897 143.389 588.354C143.597 588.715 143.876 589.197 144.249 589.705C144.787 590.358 145.401 590.727 146.162 590.93C146.922 591.134 147.759 591.053 148.646 590.781C149.534 590.51 150.498 589.953 151.418 589.181C152.337 588.409 153.042 587.681 153.582 586.807C154.121 585.933 154.445 585.103 154.459 584.292C154.473 583.481 154.176 582.688 153.663 581.94C153.29 581.433 152.866 581.115 152.537 580.823C152.207 580.531 151.922 580.455 151.612 580.473L149.716 581.086L149.065 580.097L151.354 578.775C151.519 578.921 151.848 579.213 152.272 579.53C152.696 579.847 153.051 580.044 153.38 580.336C153.709 580.628 154.013 581.015 154.507 581.453C155.469 582.424 156 583.483 156.1 584.63Z" fill="black"/>
<path d="M125.626 566.075L126.374 565.563L127.52 566.99L135.34 561.752L132.596 561.729L124.162 560.895L123.775 561.199L124.489 562.715L123.741 563.227L120.926 558.908L121.674 558.395L122.706 559.487L132.385 553.015L131.645 551.594L132.393 551.082L135.303 555.427L134.555 555.939L133.479 554.632L125.538 559.94L128.092 559.911L136.717 560.796L137.319 560.449L136.51 558.907L137.258 558.395L140.168 562.74L139.42 563.252L138.414 562.066L128.735 568.538L129.379 569.933L128.631 570.445L125.626 566.075Z" fill="black"/>
<path d="M119.003 555.439C118.604 555.026 118.3 554.639 117.971 554.348C117.642 554.056 117.528 553.72 117.294 553.453C116.529 552.128 116.118 550.999 116.088 549.972C116.057 548.946 116.546 548.262 117.51 547.705C118.354 547.218 119.216 547.042 120.071 547.271C120.926 547.5 121.61 547.989 122.243 548.668C121.687 547.704 121.441 546.721 121.67 545.866C121.899 545.011 122.388 544.327 123.136 543.814C124.246 543.093 125.419 542.898 126.439 543.273C127.459 543.648 128.446 544.524 129.446 546.116C129.794 546.719 130.142 547.321 130.299 547.873C130.457 548.424 130.64 548.881 130.754 549.217C130.868 549.553 130.912 549.768 130.886 549.863L127.976 551.222L127.489 550.379L129.259 548.714C129.247 547.998 128.95 547.206 128.368 546.337C127.951 545.614 127.362 545.15 126.766 545.092C126.171 545.035 125.309 545.211 124.465 545.698C123.837 546.141 123.399 546.635 123.126 547.275C122.948 547.94 123.124 548.802 123.706 549.671L124.427 550.781L123.558 551.363L123.002 550.399C122.723 549.917 122.394 549.625 121.97 549.308C121.546 548.99 121.071 548.863 120.57 548.831C120.069 548.798 119.518 548.956 118.915 549.304C118.192 549.721 117.849 550.241 117.697 550.811C117.639 551.406 117.771 552.053 118.189 552.776C118.467 553.258 118.771 553.645 119.125 553.842C119.455 554.134 119.74 554.21 119.955 554.166L121.635 553.598L122.287 554.587L119.921 556.194C119.731 556.143 119.497 555.877 119.003 555.439Z" fill="black"/>
<path d="M111.656 541.044L112.18 542.508L111.362 542.9L110.135 540.636C109.927 540.275 109.648 539.793 109.275 539.285C108.902 538.778 108.693 538.416 108.554 538.175C107.745 536.634 107.455 535.436 107.494 534.53C107.628 533.649 108.117 532.965 109.081 532.409C109.899 532.017 110.666 531.815 111.426 532.019C112.212 532.127 112.896 532.616 113.433 533.27C112.902 532.21 112.656 531.228 112.886 530.373C113.115 529.517 113.604 528.833 114.542 528.372C115.627 527.746 116.774 527.646 117.863 528.141C118.978 528.542 120.01 529.633 121.028 531.536C121.237 531.897 121.42 532.354 121.629 532.715C122.021 533.533 122.273 534.11 122.438 534.256L123.595 536.4L122.777 536.792L121.891 535.536L111.656 541.044ZM114.653 535.939L114.192 535.001C113.775 534.278 113.306 533.745 112.641 533.566C111.976 533.388 111.329 533.521 110.511 533.912C109.788 534.33 109.255 534.798 109.102 535.368C108.95 535.939 109.151 536.706 109.613 537.644C109.822 538.006 110.1 538.488 110.309 538.849L110.517 539.211L115.14 536.783C115.14 536.783 114.932 536.421 114.653 535.939ZM120.305 531.953C119.679 530.869 119.046 530.19 118.311 529.891C117.576 529.592 116.835 529.699 115.991 530.186C115.148 530.673 114.615 531.141 114.532 531.832C114.448 532.523 114.555 533.265 115.112 534.228C115.738 535.313 116.06 536.01 116.269 536.372L121.159 533.71C121.019 533.469 120.767 532.892 120.305 531.953Z" fill="black"/>
<path d="M103.155 527.154L102.232 525.277L111.845 515.63L111.529 514.527L112.347 514.135L114.516 518.587L113.698 518.979L112.837 517.628L110.68 519.596L113.032 524.504L115.904 524.051L115.405 522.492L116.223 522.1L118.113 526.069L117.295 526.461L116.643 525.472L103.155 527.154ZM105.319 524.78L103.987 525.951L105.711 525.598L111.954 524.725L109.855 520.394L105.319 524.78Z" fill="black"/>
<path d="M110.532 511.408C110.347 512.479 109.851 513.568 109.121 514.391C108.391 515.214 107.256 516.03 105.981 516.606C104.707 517.181 103.439 517.35 102.248 517.235C101.056 517.119 99.9415 516.719 98.998 516.059C98.0545 515.398 97.3079 514.383 96.8022 513.229C96.4357 512.316 96.1202 511.213 95.8556 509.92L95.7233 509.273L98.8935 508.086L99.3991 509.24L97.3948 510.638C97.3438 510.828 97.337 511.234 97.4252 511.665C97.5134 512.096 97.6712 512.647 97.924 513.224C98.2464 513.922 98.6893 514.55 99.3986 514.944C100.108 515.337 100.868 515.541 101.8 515.485C102.732 515.429 103.809 515.209 104.963 514.703C105.997 514.267 106.961 513.71 107.76 513.008C108.56 512.305 109.048 511.622 109.278 510.766C109.602 509.936 109.52 509.1 109.128 508.282C108.876 507.705 108.597 507.223 108.363 506.956C108.129 506.69 107.895 506.423 107.515 506.321L105.487 506.287L105.171 505.184L107.783 504.56C107.922 504.801 108.131 505.162 108.435 505.549C108.738 505.936 109.068 506.228 109.276 506.59C109.485 506.951 109.763 507.433 110.016 508.01C110.522 509.164 110.717 510.337 110.532 511.408Z" fill="black"/>
<path d="M94.3411 499.226C93.2703 499.041 92.2758 498.571 91.5224 497.962C90.7689 497.352 90.1869 496.483 89.8459 495.475C89.4353 494.347 89.3098 493.295 89.5899 492.249C89.87 491.204 90.3147 490.304 91.1141 489.602C91.9389 488.804 92.9029 488.248 94.152 487.768C95.6166 487.243 96.8843 487.074 98.1011 487.094C99.2925 487.21 100.407 487.61 101.256 488.245C102.104 488.88 102.781 489.774 103.217 490.808C103.628 491.937 103.728 493.084 103.543 494.155C103.358 495.225 102.818 496.099 101.993 496.897C101.169 497.694 100.179 498.346 98.93 498.826L100.004 501.66L105.095 499.765L104.717 498.136L105.605 497.865L107.361 502.715L106.473 502.986L105.733 501.566L94.8785 505.584L95.1872 507.092L94.2996 507.364L92.5181 502.608L93.4057 502.337L94.1455 503.757L98.9009 501.976L97.8269 499.142C96.6287 499.432 95.3865 499.506 94.3411 499.226ZM93.2025 497.393C94.438 497.724 96.0162 497.536 97.9628 496.734C99.6684 496.07 100.899 495.28 101.68 494.266C102.46 493.253 102.645 492.183 102.235 491.054C101.824 489.925 100.976 489.291 99.8354 488.985C98.695 488.679 97.0912 488.963 95.1701 489.67C93.4645 490.334 92.234 491.124 91.4787 492.042C90.698 493.055 90.5384 494.031 90.949 495.16C91.2391 496.358 92.0621 497.088 93.2025 497.393Z" fill="black"/>
<path d="M92.5472 478.171C93.036 477.487 93.6708 476.639 94.5466 475.651C95.1304 474.993 95.5683 474.499 95.8857 474.075C96.1776 473.745 96.254 473.46 96.3049 473.27L96.2931 472.554L97.1807 472.283L97.9069 474.514C98.046 474.755 97.8237 475.205 97.5063 475.629C97.1634 476.148 96.5796 476.807 95.7547 477.604C94.8789 478.592 94.1746 479.32 93.7113 479.909C93.2479 480.498 93.1206 480.973 93.2343 481.309L93.5498 482.412L98.6598 480.827L98.402 479.129L99.2896 478.857L100.83 483.752L99.9425 484.023L99.2978 482.628L88.1902 486.069L88.4038 487.552L87.5163 487.823L86.0453 483.05L86.9329 482.778L87.5777 484.173L92.6877 482.588L92.1889 481.029L85.898 479.038L86.1813 480.641L85.2937 480.913L83.9364 476.475L84.824 476.203L85.4942 477.503L91.9243 479.736C91.8106 479.4 92.0838 478.76 92.5472 478.171Z" fill="black"/>
<path d="M95.5367 469.295C95.1616 470.315 94.5268 471.164 93.6324 471.841C92.7379 472.518 91.5584 473.118 90.2398 473.478C88.8261 473.812 87.5839 473.887 86.418 473.676C85.2521 473.466 84.2831 472.901 83.4601 472.171C82.6371 471.441 82.0805 470.477 81.7905 469.279C81.273 467.409 81.4904 465.837 82.468 464.469C83.4202 463.197 84.8916 462.267 86.9773 461.705C88.391 461.371 89.7283 461.322 90.8942 461.533C92.0601 461.743 93.1241 462.334 93.9471 463.064C94.7701 463.793 95.3267 464.757 95.6168 465.955C95.9069 467.154 95.9118 468.275 95.5367 469.295ZM84.8806 471.431C86.0906 471.857 87.6434 471.764 89.6087 471.272C91.4534 470.85 92.7789 470.084 93.6292 469.192C94.4795 468.299 94.7851 467.159 94.4695 466.056C94.1794 464.857 93.3564 464.128 92.1465 463.701C90.9365 463.275 89.2886 463.343 87.3234 463.835C85.4786 464.258 84.1531 465.023 83.3028 465.915C82.4525 466.808 82.1724 467.853 82.4625 469.051C82.9682 470.206 83.7657 471.03 84.8806 471.431Z" fill="black"/>
<path d="M80.6864 459.714L80.7796 461.267L79.9175 461.443L79.3627 458.952C79.2745 458.521 79.1168 457.969 78.959 457.418C78.8012 456.866 78.6179 456.41 78.5993 456.099C78.2465 454.375 78.2669 453.158 78.5911 452.328C78.9154 451.498 79.6638 450.986 80.6464 450.74C81.5086 450.564 82.2943 450.672 83.0291 450.971C83.7384 451.365 84.3018 451.923 84.6938 452.741C84.4037 451.543 84.4428 450.637 84.862 449.832C85.2813 449.028 86.0297 448.516 86.9869 448.365C88.1851 448.075 89.3509 448.285 90.269 449.04C91.2125 449.701 91.9523 451.121 92.3492 453.061C92.4374 453.492 92.5257 453.923 92.5188 454.329C92.6698 455.286 92.8276 455.837 92.8717 456.053L93.4519 458.449L92.5897 458.626L92.0655 457.161L80.6864 459.714ZM84.9311 455.657L84.6851 454.674C84.5087 453.812 84.1608 453.21 83.5465 452.841C83.0273 452.498 82.2416 452.39 81.354 452.661C80.4918 452.838 79.8893 453.185 79.6415 453.73C79.3937 454.275 79.285 455.061 79.5055 456.138C79.5937 456.569 79.682 457 79.8652 457.457L79.9789 457.793L85.0566 456.709C85.1075 456.519 84.9939 456.183 84.9311 455.657ZM91.3666 453.307C91.0765 452.109 90.6846 451.291 90.0007 450.802C89.4118 450.339 88.6261 450.23 87.6435 450.476C86.6863 450.627 86.0584 451.07 85.8105 451.614C85.4677 452.134 85.4286 453.04 85.6491 454.118C85.9392 455.316 86.1156 456.178 86.2293 456.514L91.6431 455.316C91.7194 455.031 91.5871 454.385 91.3666 453.307Z" fill="black"/>
<path d="M74.2247 430.991L75.1818 430.84L75.6806 432.399L87.1665 430.588L87.1243 428.845L88.0814 428.694L88.9244 433.911L87.9673 434.062L87.5635 432.528L76.0776 434.339L77.0274 440.297L88.6084 438.511L88.5661 436.769L89.5233 436.618L90.2712 441.809L89.3141 441.96L88.8848 440.521L77.3989 442.332L77.3716 443.955L76.4145 444.106L74.2247 430.991Z" fill="black"/>
<path d="M86.8565 424.903C86.4118 425.802 85.587 426.6 84.623 427.156C83.659 427.713 82.4354 428.098 80.9776 428.216C79.5198 428.335 78.2335 428.194 77.1185 427.794C76.0036 427.393 75.0601 426.733 74.383 425.838C73.706 424.944 73.2699 423.91 73.1699 422.763C72.963 420.874 73.3959 419.259 74.5126 418.132C75.6294 417.005 77.24 416.316 79.4394 416.091C80.8972 415.972 82.1836 416.113 83.2985 416.514C84.4135 416.914 85.357 417.575 86.1291 418.494C86.8061 419.389 87.2422 420.422 87.3422 421.57C87.4863 422.932 87.3012 424.003 86.8565 424.903ZM76.0122 425.46C77.1713 426.076 78.6732 426.173 80.7521 426.017C82.641 425.81 83.9851 425.355 85.0254 424.514C86.0403 423.767 86.5105 422.773 86.3409 421.505C86.2409 420.358 85.5638 419.463 84.4048 418.847C83.2458 418.231 81.6488 418.109 79.6649 418.29C77.7761 418.497 76.3369 418.926 75.3916 419.793C74.3767 420.54 74.0015 421.56 74.1711 422.828C74.2457 424.07 74.9227 424.964 76.0122 425.46Z" fill="black"/>
<path d="M80.9486 410.078C82.6406 410.226 83.9965 410.488 84.8959 410.932C85.3456 411.155 85.6748 411.447 85.909 411.713C86.1177 412.075 86.2314 412.411 86.3196 412.842C86.3569 413.463 86.35 413.868 86.2737 414.153L84.7904 414.367C84.7718 414.057 84.7786 413.651 84.7668 412.935C84.7227 412.719 84.6786 412.504 84.514 412.358C84.3494 412.212 84.1847 412.066 83.9251 411.894C82.4114 411.081 79.338 410.767 74.7746 411.072L73.3168 411.191L73.2572 413.314L72.3255 413.37L71.6476 402.595L72.5793 402.539L72.9322 404.264L84.5436 403.504L84.6218 401.692L85.5535 401.636L85.9586 407.347L85.0269 407.402L84.725 405.488L73.139 406.152L73.3373 409.974L74.9851 409.906C77.3237 409.922 79.2566 409.931 80.9486 410.078Z" fill="black"/>
<path d="M72.7799 399.13L72.5625 400.701L71.6309 400.757L71.4331 391.231L74.3742 390.899L74.4046 391.926L72.6294 392.469L72.5985 397.146L77.8272 397.019L77.7358 393.939L76.1643 393.721L76.1339 392.695L80.4309 392.624L80.4613 393.651L78.8576 393.934L78.8285 397.084L84.3677 396.938L84.0508 391.658L81.6563 390.711L81.9619 389.571L85.1998 390.031L85.3839 400.368L84.4522 400.424L84.264 398.846L72.7799 399.13Z" fill="black"/>
<path d="M72.5639 383.59L72.6298 386.765L76.5075 387.498L76.4871 388.715L71.5062 388.297L71.7736 376.655L76.7868 376.573L76.7663 377.79L72.8426 378.368L72.693 381.587L84.4554 381.785L84.6678 379.092L85.574 379.131L85.4071 386.216L84.5008 386.177L84.3517 383.693L72.5639 383.59Z" fill="black"/>
<path d="M79.9899 369.18L79.9508 370.087C80.1595 370.448 80.4887 370.74 81.103 371.108C81.6223 371.451 82.3316 371.845 83.231 372.29C84.1305 372.734 84.7448 373.103 85.1945 373.325C85.6442 373.547 85.8783 373.814 85.8274 374.004L85.666 376.507L84.7597 376.468L84.6529 375.726C84.6088 375.511 84.4442 375.365 84.21 375.098C83.8554 374.902 83.4311 374.584 82.7472 374.095C81.9429 373.676 81.354 373.213 80.8347 372.87C80.3155 372.527 80.0117 372.14 79.803 371.779C79.4788 372.608 79.0154 373.197 78.267 373.71C77.544 374.127 76.7769 374.329 75.7757 374.264C74.2738 374.168 73.2793 373.697 72.7228 372.733C72.1662 371.769 71.9966 370.502 72.1189 368.905C72.1258 368.499 72.2276 368.119 72.2854 367.523C72.3431 366.928 72.4704 366.453 72.4518 366.142L72.6642 363.449L73.5704 363.488L73.6636 365.041L85.2732 365.809L85.5415 364.047L86.4477 364.086L86.0925 369.593L85.1863 369.554L85.1695 367.716L80.1632 367.393L79.9899 369.18ZM73.2171 367.467C73.0643 368.038 73.032 368.538 73.0252 368.944C72.9606 369.945 73.0675 370.687 73.5358 371.22C74.0041 371.753 74.6439 372.026 75.7402 372.116C76.7415 372.181 77.5086 371.979 78.1365 371.536C78.7645 371.093 78.9682 370.333 79.1278 369.357C79.1924 368.356 79.2501 367.76 79.1619 367.329L73.4649 366.923L73.2171 367.467Z" fill="black"/>
<path d="M74.1615 356.72L73.9168 359.914L77.7182 360.933L77.6027 362.124L72.6287 361.3L73.8973 349.723L78.9037 350.046L78.7882 351.237L74.8713 351.41L74.4111 354.648L86.0835 355.942L86.5809 353.325L87.4617 353.46L86.6737 360.582L85.7929 360.448L85.8338 358.014L74.1615 356.72Z" fill="black"/>
<path d="M88.2858 342.782C87.556 343.605 86.5666 344.256 85.4634 344.572C84.3603 344.887 83.023 344.936 81.6671 344.675C80.3112 344.413 79.1012 343.987 78.1831 343.232C77.2651 342.477 76.493 341.557 76.0824 340.428C75.6718 339.3 75.5718 338.153 75.8078 336.892C75.9674 335.916 76.273 334.775 76.7941 333.591L77.0419 333.046L80.324 333.722L80.088 334.983L77.6289 335.037C77.483 335.202 77.3115 335.461 77.0892 335.911C76.8923 336.266 76.7395 336.836 76.6817 337.431C76.5731 338.217 76.6799 338.959 77.0023 339.656C77.3247 340.354 77.8881 340.912 78.762 341.452C79.5409 341.966 80.5863 342.246 81.8472 342.482C83.0131 342.693 84.0398 342.662 85.092 342.537C86.0491 342.386 86.9622 342.019 87.6156 341.482C88.269 340.944 88.6628 340.234 88.8224 339.258C88.9056 338.568 88.9379 338.067 88.9193 337.757C88.9006 337.446 88.7869 337.11 88.5782 336.749L86.9254 335.694L87.231 334.554L89.746 335.432C89.6696 335.717 89.7832 336.053 89.846 336.579C89.9342 337.01 89.9019 337.511 89.9901 337.942C90.0783 338.373 89.951 338.848 89.8678 339.539C89.5367 340.774 89.0411 341.864 88.2858 342.782Z" fill="black"/>
<path d="M78.0523 325.474L78.933 325.608L78.7598 327.395L87.9153 329.339L85.991 327.397L80.6373 320.768L80.1621 320.641L79.6342 322.231L78.7535 322.097L79.7925 317.079L80.6733 317.213L80.5764 318.715L91.9432 321.149L92.4456 319.654L93.3009 319.883L92.2364 324.997L91.3811 324.767L91.5289 323.076L82.1833 321.081L84.0381 322.902L89.4613 329.651L90.1266 329.83L90.6799 328.145L91.5607 328.279L90.4962 333.392L89.6154 333.258L89.7378 331.661L78.371 329.226L77.894 330.626L77.0132 330.492L78.0523 325.474Z" fill="black"/>
<path d="M82.6327 305.719L87.4353 306.802L87.1042 308.037L83.3402 307.64L82.1757 311.606L93.6306 314.471L94.661 311.386L95.5163 311.615L93.727 318.673L92.8717 318.444L93.2164 316.398L81.9515 313.583L81.2521 315.433L80.3968 315.203L82.6327 305.719Z" fill="black"/>
<path d="M84.6134 302.888L83.9463 304.237L83.091 304.008L84.6052 299.117L85.4605 299.347L85.2431 300.918L90.0389 302.407L91.9351 296.09L87.1393 294.602L86.4722 295.951L85.6169 295.722L87.1057 290.926L87.961 291.155L87.7691 292.632L98.8812 296.016L99.4532 294.642L100.309 294.871L98.8198 299.667L97.9645 299.438L98.2769 297.892L93.101 296.301L91.2048 302.617L96.3807 304.208L96.9782 302.738L97.8335 302.968L96.3193 307.858L95.464 307.629L95.7509 306.178L84.6134 302.888Z" fill="black"/>
<path d="M89.1478 284.445L89.8726 282.5L103.524 282.491L104.114 281.427L104.944 281.751L103.291 286.401L102.461 286.077L102.774 284.531L99.8393 284.458L98.0586 289.583L100.344 291.316L101.037 289.872L101.867 290.196L100.436 294.396L99.606 294.072L99.8165 292.906L89.1478 284.445ZM92.418 284.405L90.726 284.257L92.1888 285.26L97.1847 289.043L98.7871 284.583L92.418 284.405Z" fill="black"/>
<path d="M102.043 275.473C103.531 276.382 104.639 277.188 105.247 277.962C105.551 278.349 105.734 278.805 105.847 279.141C105.936 279.572 105.834 279.952 105.732 280.333C105.484 280.877 105.287 281.232 105.116 281.492L103.716 281.015C103.887 280.755 104.015 280.28 104.262 279.735C104.313 279.545 104.39 279.26 104.32 279.139C104.276 278.924 104.137 278.683 103.998 278.442C102.947 277.04 100.326 275.421 96.0813 273.774L94.7067 273.202L93.6968 275.071L92.867 274.746L96.878 264.719L97.7078 265.043L97.2495 266.754L108.012 271.063L108.85 269.455L109.68 269.779L107.538 275.112L106.708 274.788L107.218 272.888L96.4551 268.578L95.0123 272.062L96.5769 272.685C98.7304 273.771 100.555 274.565 102.043 275.473Z" fill="black"/>
<path d="M105.053 259.678C105.72 258.328 106.475 257.41 107.509 256.974C108.543 256.538 109.544 256.603 110.728 257.124C111.982 257.766 112.875 258.616 113.165 259.814C113.481 260.917 113.34 262.204 112.673 263.553C112.622 263.743 112.476 263.907 112.425 264.097C112.279 264.262 112.228 264.452 112.056 264.712C111.688 265.326 111.44 265.871 111.192 266.415L110.176 268.689L109.371 268.27L109.874 266.775L99.2897 261.8L98.4325 263.098L97.6282 262.679L99.8331 257.871L100.637 258.291L100.059 260.071L103.941 261.926L105.053 259.678ZM105.056 246.743L105.86 247.162L105.307 248.847L115.796 253.796L116.704 252.308L117.508 252.727L115.158 257.7L114.353 257.28L114.907 255.595L104.417 250.646L103.509 252.134L102.705 251.715L105.056 246.743ZM111.227 264.387C111.373 264.223 111.474 263.843 111.671 263.488C112.116 262.589 112.155 261.682 111.858 260.89C111.561 260.097 110.903 259.513 109.908 259.043C109.009 258.599 108.103 258.559 107.431 258.787C106.733 259.109 106.175 259.673 105.73 260.572L104.961 262.301L110.668 264.951C110.909 264.812 111.081 264.552 111.227 264.387Z" fill="black"/>
<path d="M110.116 239.644L109.189 240.822L108.384 240.402L110.893 235.982L111.697 236.401L111.1 237.871L115.546 240.284L118.722 234.515L114.276 232.101L113.349 233.279L112.545 232.859L114.933 228.508L115.737 228.928L115.26 230.328L125.451 236.012L126.377 234.834L127.182 235.253L124.768 239.7L123.964 239.28L124.561 237.811L119.76 235.2L116.585 240.97L121.385 243.581L122.363 242.213L123.167 242.632L120.633 247.148L119.829 246.728L120.401 245.354L110.116 239.644Z" fill="black"/>
<path d="M118.54 222.65L119.619 220.902L132.981 223.872L133.737 222.954L134.516 223.468L131.868 227.648L131.089 227.133L131.781 225.689L128.93 224.925L126.06 229.555L127.908 231.781L128.955 230.534L129.734 231.048L127.404 234.804L126.625 234.289L127.121 233.2L118.54 222.65ZM121.632 223.275L120.016 222.842L121.212 224.079L125.332 228.85L127.834 224.835L121.632 223.275Z" fill="black"/>
<path d="M128.105 210.138L126.766 211.715L125.987 211.201L128.895 207.192L137.225 209.934L139.525 210.856L137.886 208.99L132.539 201.956L135.446 197.947L136.225 198.462L135.241 200.235L145.577 205.755L146.719 204.533L147.498 205.047L144.273 209.48L143.494 208.965L144.307 207.452L136.98 203.247L133.788 201.475L135.541 203.677L141.678 211.942L140.993 212.98L131.946 210.251L128.385 209.093L131.114 211.454L137.489 216.931L138.683 215.519L139.462 216.033L136.675 219.972L135.896 219.458L136.683 218.039L128.105 210.138Z" fill="black"/>
<path d="M139.813 192.293L141.057 190.692L154.012 195.181L154.837 194.384L155.591 194.993L152.519 198.855L151.765 198.246L152.622 196.948L149.943 195.924L146.553 200.211L148.16 202.577L149.277 201.45L150.03 202.059L147.276 205.497L146.522 204.888L147.113 203.824L139.813 192.293ZM142.829 193.203L141.264 192.58L142.315 193.982L145.807 199.196L148.733 195.498L142.829 193.203Z" fill="black"/>
<path d="M147.357 185.046L146.196 185.957L145.443 185.348L147.074 183.442C147.366 183.113 147.658 182.784 147.855 182.429C148.293 181.935 148.636 181.416 149.073 180.922C150.241 179.605 151.376 178.789 152.334 178.638C153.291 178.487 154.311 178.862 155.298 179.738C156.052 180.348 156.564 181.096 156.836 181.984C157.107 182.871 157.093 183.682 156.864 184.538C156.635 185.393 156.19 186.292 155.486 187.02C155.22 187.255 155.023 187.609 154.756 187.843C154.49 188.078 154.344 188.242 154.318 188.337L157.471 191.015L159.267 189.256L159.925 189.84L155.933 194.474L155.275 193.89L156.132 192.592L147.357 185.046ZM154.828 186.437C155.437 185.683 155.761 184.853 155.68 184.017C155.598 183.18 155.111 182.336 154.054 181.34C153.231 180.61 152.496 180.312 151.755 180.418C151.013 180.525 150.385 180.968 149.535 181.861C149.243 182.19 149.046 182.545 148.754 182.874C148.583 183.133 148.462 183.203 148.437 183.298L153.495 187.607C153.831 187.494 154.244 187.095 154.828 186.437Z" fill="black"/>
<path d="M165.194 183.103C164.091 183.418 162.994 183.328 161.854 183.023C160.739 182.622 159.675 182.031 158.618 181.035C157.656 180.064 156.909 179.049 156.524 177.826C156.113 176.697 156.134 175.48 156.344 174.314C156.65 173.174 157.145 172.085 158.091 171.217C158.795 170.489 159.594 169.787 160.825 168.996L161.332 168.623L163.63 171.072L162.78 171.965L160.677 170.688C160.462 170.732 160.126 170.846 159.764 171.055C159.403 171.263 158.99 171.662 158.578 172.061C158.019 172.624 157.721 173.359 157.637 174.05C157.529 174.836 157.731 175.603 158.097 176.516C158.489 177.334 159.166 178.228 160.059 179.078C160.856 179.903 161.825 180.468 162.725 180.913C163.624 181.358 164.505 181.492 165.341 181.411C166.178 181.329 166.901 180.912 167.58 180.279C168.018 179.785 168.335 179.361 168.507 179.101C168.678 178.842 168.78 178.461 168.761 178.151L167.933 176.299L168.853 175.527L170.511 177.703C170.365 177.868 170.168 178.222 169.92 178.767C169.698 179.217 169.501 179.571 169.304 179.926C169.107 180.281 168.79 180.705 168.352 181.199C167.286 182.135 166.202 182.762 165.194 183.103Z" fill="black"/>
<path d="M176.263 153.576L176.896 154.255L175.703 155.667L181.981 162.646L181.598 159.895L181.215 151.44L180.911 151.053L179.535 152.008L178.902 151.329L182.778 147.886L183.411 148.565L182.485 149.743L190.238 158.441L191.494 157.555L192.127 158.234L188.25 161.677L187.617 160.998L188.759 159.777L182.411 152.677L182.846 155.238L183.177 163.883L183.646 164.416L185.048 163.366L185.681 164.045L181.779 167.583L181.146 166.904L182.168 165.751L174.414 157.053L173.184 157.844L172.551 157.165L176.263 153.576Z" fill="black"/>
<path d="M185.944 145.577C186.261 145.153 186.578 144.729 186.87 144.399C187.162 144.07 187.429 143.836 187.695 143.602C188.881 142.596 190.036 142.09 190.993 141.939C191.95 141.788 192.754 142.207 193.457 143.007C194.064 143.781 194.361 144.573 194.227 145.454C194.093 146.335 193.794 147.07 193.185 147.823C194.079 147.146 194.992 146.779 195.873 146.914C196.779 146.953 197.489 147.346 198.096 148.12C198.938 149.161 199.253 150.264 199.068 151.335C198.883 152.406 198.077 153.514 196.65 154.659C196.117 155.127 195.514 155.475 195.032 155.754C194.55 156.032 194.094 156.215 193.758 156.329C193.422 156.442 193.206 156.486 193.181 156.582L191.365 153.854L192.139 153.247L194.07 154.783C194.717 154.65 195.535 154.258 196.334 153.556C196.987 153.018 197.356 152.404 197.319 151.783C197.307 151.066 197.079 150.394 196.377 149.595C195.934 148.967 195.32 148.599 194.629 148.515C193.938 148.432 193.146 148.729 192.251 149.406L191.211 150.248L190.508 149.449L191.308 148.746C191.695 148.442 192.012 148.018 192.234 147.568C192.457 147.119 192.584 146.643 192.521 146.117C192.459 145.591 192.18 145.109 191.807 144.602C191.269 143.948 190.75 143.606 190.129 143.643C189.508 143.68 188.931 143.933 188.303 144.376C187.89 144.775 187.598 145.104 187.306 145.433C187.014 145.762 187.033 146.073 187.077 146.288L187.887 147.829L186.967 148.601L184.998 146.444C185.239 146.305 185.531 145.976 185.944 145.577Z" fill="black"/>
<path d="M199.131 136.277L197.71 137.016L197.198 136.268L199.227 134.775C199.589 134.566 200.001 134.167 200.509 133.794C200.921 133.395 201.308 133.091 201.549 132.952C202.951 131.902 204.105 131.396 205.011 131.435C205.918 131.474 206.722 131.894 207.329 132.668C207.842 133.416 208.044 134.183 208.03 134.994C208.016 135.806 207.623 136.515 207.039 137.173C207.959 136.401 208.941 136.155 209.848 136.194C210.754 136.233 211.533 136.748 212.045 137.496C212.792 138.511 213.012 139.589 212.802 140.755C212.591 141.921 211.569 143.073 209.901 144.357C209.514 144.661 209.153 144.87 208.791 145.078C207.948 145.565 207.535 145.964 207.32 146.008L205.29 147.502L204.777 146.753L205.869 145.721L199.131 136.277ZM204.534 138.539L205.403 137.957C206.151 137.445 206.52 136.83 206.577 136.235C206.635 135.639 206.433 134.872 205.921 134.124C205.408 133.375 204.889 133.032 204.293 132.975C203.698 132.917 202.905 133.214 202.131 133.821C201.744 134.125 201.383 134.334 201.091 134.663L200.824 134.897L203.88 139.077C203.785 139.052 204.147 138.843 204.534 138.539ZM209.319 143.488C210.334 142.742 210.943 141.988 211.052 141.203C211.161 140.417 210.959 139.65 210.446 138.901C209.839 138.127 209.25 137.664 208.654 137.606C207.964 137.523 207.266 137.845 206.372 138.522C205.357 139.269 204.729 139.712 204.462 139.946L207.727 144.488C207.943 144.444 208.45 144.07 209.319 143.488Z" fill="black"/>
<path d="M211.692 125.892L213.429 124.728L224.365 132.954L225.424 132.423L225.936 133.172L221.832 135.943L221.32 135.194L222.506 134.188L220.246 132.36L215.66 135.409L216.449 138.167L217.87 137.427L218.382 138.176L214.665 140.643L214.153 139.894L214.978 139.097L211.692 125.892ZM214.357 127.726L213.015 126.654L213.584 128.334L215.319 134.401L219.277 131.795L214.357 127.726Z" fill="black"/>
<path d="M228.265 130.944C227.143 130.949 226.123 130.573 225.059 129.983C224.115 129.322 223.248 128.377 222.458 127.147C221.762 125.942 221.377 124.718 221.277 123.571C221.177 122.424 221.508 121.188 222.073 120.219C222.664 119.155 223.489 118.358 224.598 117.637C225.442 117.15 226.475 116.713 227.82 116.259L228.397 116.006L229.946 118.967L228.861 119.594L227.197 117.823C227.007 117.772 226.671 117.886 226.239 117.974C225.808 118.063 225.326 118.341 224.844 118.619C224.121 119.037 223.658 119.625 223.385 120.265C223.086 121 222.977 121.786 223.128 122.743C223.279 123.7 223.715 124.734 224.367 125.723C225.019 126.712 225.696 127.607 226.449 128.216C227.202 128.826 228.007 129.245 228.862 129.474C229.717 129.703 230.485 129.501 231.328 129.014C231.931 128.666 232.318 128.363 232.489 128.103C232.755 127.869 232.952 127.514 233.029 127.229L232.752 125.22L233.811 124.689L234.772 127.187C234.531 127.326 234.264 127.56 233.947 127.984C233.655 128.314 233.363 128.643 232.976 128.947C232.684 129.276 232.202 129.554 231.72 129.832C230.585 130.648 229.386 130.939 228.265 130.944Z" fill="black"/>
<path d="M238.014 113.185C238.104 112.088 238.384 111.043 238.924 110.169C239.464 109.295 240.143 108.662 241.107 108.105C242.191 107.479 243.269 107.259 244.27 107.323C245.271 107.388 246.291 107.763 247.114 108.493C247.937 109.223 248.709 110.143 249.43 111.253C250.196 112.578 250.555 113.897 250.63 115.139C250.704 116.381 250.519 117.452 249.954 118.421C249.389 119.39 248.685 120.118 247.721 120.675C246.636 121.301 245.559 121.521 244.462 121.431C243.461 121.367 242.441 120.991 241.593 120.357C240.744 119.722 239.877 118.777 239.276 117.597L236.651 119.033L239.244 123.802L240.734 123.182L241.126 124L236.598 126.454L236.206 125.636L237.462 124.75L231.954 114.515L230.489 115.039L230.002 114.195L234.41 111.811L234.897 112.655L233.641 113.541L236.025 117.948L238.745 116.538C238.214 115.479 237.994 114.401 238.014 113.185ZM239.777 111.925C239.636 113.212 240.04 114.746 241.084 116.553C241.988 118.12 242.899 119.281 244.058 119.897C245.217 120.513 246.219 120.578 247.398 119.977C248.457 119.446 249.022 118.477 249.043 117.26C249.063 116.043 248.66 114.509 247.711 112.727C246.807 111.161 245.896 110 244.831 109.409C243.767 108.818 242.671 108.728 241.612 109.26C240.553 109.791 239.918 110.639 239.777 111.925Z" fill="black"/>
<path d="M258.737 108.45C259.447 108.844 260.321 109.383 261.48 110C262.259 110.514 262.778 110.857 263.228 111.079C263.677 111.301 263.867 111.352 264.083 111.308L264.825 111.201L265.216 112.019L263.124 112.986C262.883 113.126 262.503 113.024 261.958 112.776C261.413 112.528 260.729 112.039 259.786 111.379C258.773 110.598 257.899 110.059 257.285 109.69C256.67 109.322 256.17 109.29 255.834 109.403L254.775 109.934L257.057 114.722L258.616 114.223L259.008 115.041L254.341 117.254L253.949 116.436L255.275 115.671L250.344 105.182L248.905 105.612L248.513 104.793L253.059 102.65L253.451 103.468L252.1 104.329L254.357 109.211L255.778 108.472L256.914 101.952L255.354 102.45L254.962 101.632L259.147 99.6981L259.539 100.516L258.309 101.307L256.932 107.966C257.337 107.973 258.003 108.151 258.737 108.45Z" fill="black"/>
<path d="M267.944 110.204C266.873 110.019 265.999 109.479 265.201 108.654C264.404 107.829 263.657 106.814 263.107 105.445C262.558 104.075 262.268 102.877 262.383 101.686C262.499 100.494 262.779 99.449 263.439 98.5055C264.099 97.562 264.994 96.8849 266.027 96.4489C267.853 95.7159 269.381 95.7177 270.825 96.4103C272.269 97.1028 273.414 98.5301 274.217 100.477C274.767 101.846 275.031 103.139 274.916 104.331C274.8 105.522 274.495 106.663 273.834 107.606C273.174 108.55 272.28 109.227 271.246 109.663C270.067 110.263 269.015 110.389 267.944 110.204ZM264.343 100.072C264.107 101.333 264.416 102.842 265.124 104.763C265.882 106.494 266.768 107.75 267.806 108.435C268.82 109.216 269.916 109.306 271.07 108.801C272.198 108.39 272.859 107.446 273.095 106.186C273.331 104.925 273.047 103.321 272.219 101.469C271.461 99.7383 270.575 98.4824 269.537 97.7967C268.498 97.1109 267.427 96.9259 266.273 97.4315C265.214 97.9626 264.579 98.8111 264.343 100.072Z" fill="black"/>
<path d="M275.302 94.1466L273.793 94.4553L273.522 93.5677L275.9 92.677C276.331 92.5887 276.813 92.3105 277.39 92.0577C277.967 91.8048 278.328 91.5961 278.639 91.5775C280.224 90.9837 281.492 90.8141 282.347 91.0432C283.202 91.2724 283.861 91.8563 284.202 92.8644C284.499 93.6569 284.58 94.4936 284.281 95.2284C283.982 95.9632 283.494 96.6471 282.771 97.0645C283.899 96.6539 284.831 96.598 285.686 96.8271C286.541 97.0563 287.174 97.7352 287.515 98.7433C287.926 99.8719 287.906 101.089 287.34 102.058C286.75 103.122 285.494 104.007 283.573 104.715C283.116 104.898 282.78 105.012 282.349 105.1C281.461 105.372 280.884 105.624 280.669 105.668L278.291 106.559L277.994 105.767L279.415 105.027L275.302 94.1466ZM279.918 97.8279L280.926 97.4869C281.718 97.19 282.251 96.7216 282.525 96.0819C282.798 95.4421 282.786 94.7259 282.394 93.9079C282.097 93.1153 281.629 92.5824 281.084 92.3346C280.539 92.0868 279.703 92.1682 278.695 92.5092C278.238 92.6924 277.877 92.9011 277.42 93.0844L277.059 93.2931L278.91 98.1689C279.03 98.0994 279.366 97.9857 279.918 97.8279ZM283.086 103.871C284.214 103.461 284.988 102.853 285.382 102.144C285.776 101.435 285.764 100.719 285.423 99.7104C285.056 98.7974 284.588 98.2645 284.043 98.0166C283.404 97.7434 282.567 97.8247 281.533 98.2608C280.31 98.6459 279.612 98.9683 279.276 99.082L281.241 104.294C281.501 104.465 282.173 104.238 283.086 103.871Z" fill="black"/>
<path d="M302.826 83.7986L303.097 84.6862L301.677 85.426L305.023 96.5081L306.747 96.1553L307.018 97.0429L302.029 98.5579L301.757 97.6704L303.152 97.0256L299.737 85.8229L293.981 87.5399L297.396 98.7425L299.12 98.3897L299.391 99.2773L294.402 100.792L294.13 99.9047L295.526 99.26L292.18 88.1778L290.576 88.4611L290.305 87.5735L302.826 83.7986Z" fill="black"/>
<path d="M310.626 95.3614C309.607 94.9863 308.758 94.3515 308.081 93.4571C307.404 92.5627 306.898 91.4087 306.564 89.995C306.23 88.5813 306.155 87.339 306.391 86.0781C306.602 84.9122 307.167 83.9433 307.897 83.1203C308.627 82.2972 309.591 81.7407 310.789 81.4506C312.659 80.9331 314.231 81.1505 315.598 82.1281C316.871 83.0803 317.801 84.5517 318.337 86.7325C318.671 88.1462 318.72 89.4835 318.51 90.6494C318.274 91.9103 317.709 92.8792 316.884 93.6768C316.059 94.4743 315.095 95.0309 313.992 95.3465C312.673 95.7061 311.646 95.7366 310.626 95.3614ZM308.491 84.7054C308.065 85.9153 308.158 87.4682 308.65 89.4334C309.072 91.2782 309.838 92.6036 310.73 93.454C311.623 94.3043 312.763 94.6098 313.866 94.2943C315.064 94.0042 315.769 93.2762 316.22 91.9712C316.646 90.7612 316.579 89.1133 316.087 87.1481C315.664 85.3033 314.899 83.9779 314.006 83.1276C313.114 82.2773 312.068 81.9972 310.87 82.2873C309.716 82.7929 308.891 83.5904 308.491 84.7054Z" fill="black"/>
<path d="M324.553 87.4813C324.69 89.2497 324.55 90.5361 324.174 91.556C324.047 92.0311 323.73 92.4554 323.463 92.6896C323.197 92.9237 322.835 93.1324 322.404 93.2206C321.853 93.3784 321.352 93.3461 321.136 93.3902L320.707 91.9511C321.018 91.9324 321.449 91.8442 322.095 91.7119C322.311 91.6678 322.527 91.6237 322.673 91.4591C322.818 91.2945 322.964 91.1299 323.041 90.8448C323.689 89.1851 323.477 86.1745 322.551 81.6483L322.217 80.2347L320.018 80.4602L319.841 79.5981L330.402 77.4369L330.579 78.299L328.898 78.8674L331.236 90.2906L333.125 90.0837L333.301 90.9458L327.697 92.0925L327.521 91.2304L329.417 90.6179L327.079 79.1948L323.415 79.9446L323.793 81.5738C324.114 83.7987 324.39 85.808 324.553 87.4813Z" fill="black"/>
<path d="M334.166 77.8343L332.639 77.8325L332.488 76.8753L341.869 75.3148L342.633 78.1677L341.581 78.2932L340.727 76.5366L336.182 77.1523L337.025 82.3691L340.138 81.7771L340.14 80.2497L341.192 80.1243L341.884 84.384L340.832 84.5095L340.333 82.9498L337.246 83.4468L338.108 88.9742L343.28 87.9157L343.847 85.4193L345.013 85.6299L345.054 88.9001L334.835 90.542L334.659 89.6799L336.193 89.2761L334.166 77.8343Z" fill="black"/>
<path d="M349.576 75.4445L346.394 75.916L346.256 79.8515L344.988 80.0211L344.69 75.0521L356.264 73.6717L357.088 78.578L355.941 78.678L354.837 74.8171L351.611 75.073L353.061 86.7677L355.735 86.6695L355.791 87.6012L348.736 88.461L348.68 87.5293L351.051 87.0441L349.576 75.4445Z" fill="black"/>
<path d="M364.856 80.761L363.924 80.8169C363.658 81.0511 363.34 81.4753 363.092 82.02C362.819 82.6598 362.52 83.3946 362.266 84.345C361.916 85.2698 361.738 85.9351 361.516 86.3848C361.293 86.8345 361.122 87.0941 360.906 87.1382L358.396 87.3824L358.34 86.4507L359.012 86.2233C359.228 86.1792 359.374 86.0146 359.571 85.66C359.768 85.3053 360.015 84.7605 360.314 84.0257C360.638 83.1959 361.032 82.4866 361.28 81.9418C361.623 81.4225 361.94 80.9983 362.302 80.7896C361.421 80.6555 360.712 80.2617 360.174 79.6082C359.636 78.9548 359.339 78.1623 359.283 77.2306C359.164 75.7728 359.565 74.6579 360.339 74.0504C361.233 73.3733 362.457 72.9882 364.105 72.9204C364.415 72.9018 364.941 72.8391 365.537 72.8968C366.158 72.8595 366.564 72.8663 366.874 72.8477L369.574 72.6545L369.63 73.5862L368.122 73.8949L369.027 85.3417L370.744 85.3945L370.8 86.3262L365.28 86.7822L365.224 85.8505L367.043 85.5231L366.65 80.5286L364.856 80.761ZM365.618 73.7335C365.023 73.6757 364.592 73.7639 364.091 73.7316C363.159 73.7876 362.367 74.0845 361.954 74.4833C361.421 74.9516 361.218 75.7119 361.343 76.7641C361.374 77.7908 361.791 78.5138 362.259 79.0467C362.848 79.5101 363.609 79.7138 364.54 79.6578C365.567 79.6274 366.214 79.4951 366.524 79.4764L366.119 73.7658L365.618 73.7335Z" fill="black"/>
<path d="M376.342 73.2456L373.116 73.5015L372.573 77.4302L371.33 77.5048L371.463 72.4475L383.093 71.9988L383.487 76.9933L382.365 76.9983L381.571 73.1187L378.301 73.1592L378.698 84.9793L381.322 85.0712L381.378 86.0029L374.286 86.2415L374.23 85.3098L376.645 85.0402L376.342 73.2456Z" fill="black"/>
<path d="M392.178 85.2301C391.235 84.5698 390.532 83.7705 390.001 82.7114C389.47 81.6524 389.3 80.3847 389.277 78.9524C389.348 77.5455 389.679 76.3101 390.27 75.2461C390.861 74.182 391.685 73.3845 392.744 72.8534C393.803 72.3223 394.907 72.0067 396.218 72.0527C397.125 72.0918 398.316 72.2073 399.646 72.5638L400.217 72.7166L399.921 76.1005L398.704 76.08L398.314 73.7347C398.15 73.5887 397.89 73.4173 397.415 73.2899C396.94 73.1626 396.439 73.1303 395.843 73.0726C395.032 73.0589 394.36 73.2863 393.732 73.7292C393.104 74.172 392.615 74.8559 392.196 75.6603C391.846 76.5852 391.592 77.5355 391.546 78.8473C391.525 80.0641 391.651 81.1163 391.922 82.0039C392.194 82.8915 392.681 83.735 393.339 84.3188C393.997 84.9027 394.732 85.2014 395.639 85.2405C396.355 85.2287 396.76 85.2355 397.191 85.1473C397.527 85.0337 397.863 84.92 398.13 84.6858L398.924 82.8615L400.09 83.0721L399.593 85.6889C399.282 85.7075 398.946 85.8212 398.42 85.884C397.989 85.9722 397.532 86.1554 397.127 86.1486C396.696 86.2368 396.195 86.2045 395.574 86.2418C394.262 86.1959 393.122 85.8903 392.178 85.2301Z" fill="black"/>
<path d="M407.784 72.6051L407.745 73.5113L405.881 73.6232L405.198 83.0147L406.906 80.8239L412.737 74.6454L412.77 74.1448L411.129 73.8069L411.168 72.9007L416.269 73.249L416.23 74.1552L414.772 74.2739L414.004 85.8835L415.55 86.1959L415.511 87.1021L410.315 86.7283L410.354 85.8221L412.002 85.7543L412.615 76.2423L411.054 78.2685L405.101 84.5166L405.018 85.2073L406.78 85.4756L406.741 86.3818L401.449 85.9825L401.488 85.0763L403.041 84.9831L403.809 73.3735L402.358 73.0866L402.397 72.1804L407.784 72.6051Z" fill="black"/>
<path d="M428.062 74.4736L427.67 79.3594L426.383 79.2185L426.28 75.4221L422.161 74.8278L420.842 86.5951L424.054 87.1503L423.92 88.0311L416.607 87.1921L416.742 86.3114L418.77 86.3455L420.013 74.8632L418.112 74.3539L418.246 73.4732L428.062 74.4736Z" fill="black"/>
<path d="M431.21 76.0302L429.81 75.5532L429.944 74.6724L434.943 75.4009L434.809 76.2816L433.187 76.2543L432.458 81.2538L438.909 82.2692L439.637 77.2697L438.142 76.7673L438.276 75.8865L443.276 76.615L443.142 77.4958L441.614 77.4939L439.871 88.9439L441.296 89.3259L441.162 90.2066L436.162 89.4782L436.297 88.5974L437.824 88.5992L438.654 83.2196L432.204 82.2042L431.373 87.5838L432.989 88.0167L432.855 88.8975L427.76 88.1435L427.894 87.2628L429.422 87.2646L431.21 76.0302Z" fill="black"/>
<path d="M450.03 78.0173L452.051 78.4571L453.924 91.9964L455.039 92.397L454.904 93.2778L450.076 92.2897L450.211 91.4089L451.807 91.5313L451.475 88.5902L446.172 87.4748L444.768 90.0525L446.263 90.555L446.129 91.4357L441.776 90.5749L441.91 89.6942L443.127 89.7146L450.03 78.0173ZM450.622 81.1298L450.459 79.4565L449.741 80.9957L446.737 86.5058L451.375 87.443L450.622 81.1298Z" fill="black"/>
<path d="M460.721 89.438C460.098 91.0026 459.361 92.2312 458.657 92.9592C458.244 93.358 457.883 93.5667 457.547 93.6804C457.211 93.794 456.805 93.7872 456.33 93.6599C455.76 93.5071 455.285 93.3798 455.025 93.2084L455.217 91.7319C455.502 91.8083 455.977 91.9357 456.547 92.0884C456.737 92.1394 456.953 92.0953 457.169 92.0512C457.384 92.007 457.53 91.8424 457.796 91.6083C459.034 90.4119 460.298 87.5932 461.4 83.1012L461.782 81.6757L459.786 81.1409L460.041 80.1906L470.546 82.8016L470.291 83.7519L468.504 83.5787L465.689 94.8436L467.444 95.5174L467.215 96.3728L461.582 94.9654L461.812 94.1101L463.763 94.4293L466.578 83.1644L462.846 82.2663L462.413 83.8819C461.973 85.9031 461.344 87.8733 460.721 89.438Z" fill="black"/>
<path d="M476.792 90.2811C478.192 90.7581 479.23 91.4438 479.812 92.3127C480.395 93.1817 480.495 94.3289 480.069 95.5389C479.592 96.9389 478.836 97.857 477.803 98.293C476.649 98.7987 475.432 98.7782 474.006 98.3962C473.816 98.3453 473.626 98.2944 473.436 98.2434C473.246 98.1925 473.056 98.1416 472.796 97.9702C472.157 97.6969 471.491 97.5186 470.947 97.2708L468.501 96.5137L468.73 95.6584L470.276 95.9708L473.661 84.8587L472.312 84.1916L472.541 83.3363L477.622 84.9014L477.393 85.7568L475.536 85.463L474.226 89.5936L476.792 90.2811ZM472.956 96.9943C473.146 97.0453 473.501 97.2422 473.881 97.344C474.926 97.6241 475.737 97.6378 476.46 97.2204C477.183 96.8029 477.672 96.1191 477.952 95.0737C478.232 94.0283 478.221 93.3122 477.803 92.5892C477.455 91.9867 476.771 91.4979 475.752 91.1227L473.946 90.6389L472.126 96.6701C472.506 96.772 472.766 96.9434 472.956 96.9943ZM489.59 88.5155L489.36 89.3708L487.599 89.1026L484.214 100.215L485.848 100.958L485.619 101.813L480.348 100.197L480.577 99.3421L482.313 99.7054L485.698 88.5933L484.064 87.8498L484.293 86.9945L489.59 88.5155Z" fill="black"/>
<path d="M497.279 92.5112L495.955 91.7491L496.279 90.9192L500.999 92.6931L500.675 93.5229L499.128 93.2105L497.355 97.9299L503.544 100.301L505.318 95.5819L503.994 94.8198L504.318 93.9899L509.037 95.7638L508.713 96.5936L507.262 96.3067L503.117 107.215L504.466 107.882L504.142 108.712L499.423 106.938L499.747 106.108L501.267 106.516L503.238 101.442L497.049 99.0703L495.078 104.144L496.497 104.932L496.173 105.762L491.384 103.867L491.708 103.038L493.229 103.445L497.279 92.5112Z" fill="black"/>
<path d="M515.271 98.3505L517.19 99.1703L516.172 112.852L517.116 113.512L516.791 114.342L512.243 112.309L512.568 111.479L514.063 111.981L514.447 109.028L509.423 106.868L507.526 109.007L508.945 109.795L508.62 110.625L504.522 108.814L504.846 107.984L505.987 108.289L515.271 98.3505ZM515.216 101.595L515.459 99.9287L514.386 101.271L510.274 105.975L514.657 107.862L515.216 101.595Z" fill="black"/>
<path d="M528.982 106.099L527.26 104.924L527.679 104.12L532.056 106.413L530.55 115.075L530.008 117.476L531.613 115.665L537.781 109.373L542.158 111.666L541.739 112.471L539.794 111.746L535.744 122.68L537.111 123.657L536.692 124.462L531.961 121.972L532.38 121.167L533.945 121.79L537.06 113.967L538.382 110.553L536.415 112.572L529.181 119.801L528.117 119.21L529.611 109.832L530.269 106.24L528.332 109.286L523.773 116.417L525.331 117.445L524.912 118.25L520.63 115.982L521.049 115.178L522.519 115.775L528.982 106.099Z" fill="black"/>
<path d="M548.352 115.16L550.1 116.239L547.51 129.703L548.454 130.364L548.035 131.168L543.804 128.71L544.223 127.906L545.693 128.503L546.336 125.722L541.682 122.947L539.524 124.915L540.797 125.867L540.378 126.672L536.597 124.436L537.016 123.632L538.131 124.033L548.352 115.16ZM547.917 118.302L548.35 116.687L547.113 117.883L542.411 122.124L546.547 124.556L547.917 118.302Z" fill="black"/>
<path d="M556.621 121.551L555.564 120.555L556.078 119.776L558.155 121.147C558.51 121.344 558.934 121.662 559.289 121.859C559.903 122.227 560.448 122.475 560.967 122.818C562.43 123.821 563.392 124.791 563.638 125.774C563.884 126.757 563.699 127.828 563.013 128.866C562.473 129.74 561.82 130.278 561.002 130.67C560.184 131.062 559.347 131.143 558.467 131.009C557.586 130.875 556.661 130.525 555.787 129.986C555.432 129.789 555.173 129.617 554.843 129.325C554.489 129.128 554.324 128.982 554.255 128.862L552.001 132.332L554.027 133.894L553.512 134.673L548.389 131.365L548.904 130.586L550.348 131.278L556.621 121.551ZM556.301 129.207C557.175 129.746 557.935 129.95 558.798 129.774C559.66 129.597 560.434 128.99 561.17 127.761C561.71 126.887 561.939 126.032 561.712 125.36C561.484 124.688 560.947 124.034 560.003 123.374C559.648 123.177 559.294 122.98 558.844 122.758C558.584 122.587 558.394 122.536 558.394 122.536L554.769 128.083C555.098 128.375 555.522 128.692 556.301 129.207Z" fill="black"/>
<path d="M561.03 138.928C560.594 137.894 560.494 136.747 560.679 135.676C560.864 134.605 561.411 133.326 562.243 132.123C563.049 131.015 563.994 130.148 565.053 129.616C566.112 129.085 567.285 128.89 568.476 129.006C569.667 129.121 570.782 129.522 571.796 130.303C572.574 130.817 573.467 131.667 574.334 132.613L574.828 133.05L572.708 135.64L571.669 134.954L572.661 132.775C572.617 132.56 572.383 132.293 572.174 131.932C571.965 131.57 571.446 131.228 570.927 130.885C570.243 130.396 569.577 130.218 568.766 130.204C567.955 130.19 567.162 130.487 566.414 131C565.666 131.512 564.841 132.31 564.18 133.253C563.52 134.197 563.05 135.191 562.7 136.116C562.446 137.066 562.312 137.947 562.583 138.835C562.854 139.722 563.297 140.35 564.076 140.865C564.596 141.207 565.02 141.525 565.4 141.627C565.78 141.728 566.065 141.805 566.376 141.786L568.088 140.717L568.981 141.568L567.039 143.492C566.78 143.32 566.399 143.219 565.95 142.996C565.475 142.869 565.12 142.672 564.645 142.545C564.29 142.348 563.84 142.125 563.321 141.783C562.333 140.907 561.466 139.961 561.03 138.928Z" fill="black"/>
<path d="M588.29 142.871L587.681 143.624L586.123 142.596L580.201 149.871L582.864 149.056L591.149 147.406L591.466 146.981L590.365 145.77L590.974 145.016L594.976 148.329L594.367 149.083L593.043 148.321L585.636 157.336L586.763 158.453L586.179 159.112L582.178 155.799L582.761 155.14L584.155 156.023L590.197 148.678L587.75 149.449L579.249 151.143L578.811 151.637L580.007 152.874L579.423 153.533L575.327 150.194L575.911 149.536L577.209 150.393L584.616 141.377L583.584 140.286L584.193 139.532L588.29 142.871Z" fill="black"/>
<path d="M597.767 151.216C598.312 151.464 598.641 151.756 598.996 151.953C599.351 152.15 599.68 152.441 599.939 152.613C601.092 153.635 601.838 154.65 602.084 155.632C602.33 156.615 602.101 157.47 601.397 158.198C600.692 158.926 599.969 159.343 599.063 159.304C598.226 159.386 597.371 159.157 596.592 158.642C597.39 159.467 597.877 160.311 597.958 161.147C598.04 161.984 597.715 162.814 597.132 163.472C596.256 164.46 595.197 164.991 594.1 164.901C592.979 164.906 591.82 164.29 590.408 163.097C589.819 162.633 589.446 162.126 589.072 161.618C588.699 161.111 588.49 160.749 588.256 160.483C588.117 160.242 587.978 160.001 587.908 159.88L590.332 157.678L590.99 158.262L589.809 160.39C590.036 161.062 590.574 161.715 591.302 162.42C591.961 163.003 592.505 163.251 593.247 163.144C593.894 163.012 594.591 162.69 595.2 161.936C595.759 161.373 595.937 160.708 596.02 160.017C596.103 159.326 595.591 158.578 594.768 157.848L593.78 156.972L594.485 156.244L595.308 156.974C595.732 157.291 596.156 157.609 596.631 157.736C597.107 157.863 597.607 157.896 598.159 157.738C598.71 157.58 599.097 157.276 599.535 156.783C600.119 156.124 600.367 155.579 600.234 154.933C600.197 154.312 599.824 153.804 599.165 153.22C598.767 152.808 598.412 152.611 597.962 152.389C597.608 152.192 597.297 152.21 597.082 152.255L595.68 153.305L594.762 152.55L596.59 150.289C596.893 150.676 597.248 150.873 597.767 151.216Z" fill="black"/>
<path d="M608.908 162.859L608.022 161.603L608.701 160.97L610.46 162.766C610.79 163.058 611.188 163.47 611.682 163.908C612.176 164.346 612.505 164.638 612.67 164.784C613.866 166.021 614.613 167.036 614.669 167.968C614.845 168.83 614.521 169.659 613.817 170.387C613.138 171.02 612.44 171.343 611.699 171.45C610.957 171.557 610.102 171.327 609.323 170.813C610.215 171.663 610.702 172.507 610.758 173.439C610.814 174.37 610.515 175.105 609.811 175.833C608.961 176.726 607.832 177.136 606.736 177.046C605.544 176.931 604.221 176.169 602.765 174.76C602.436 174.468 602.132 174.081 601.898 173.815C601.265 173.136 600.866 172.723 600.701 172.577L598.942 170.782L599.621 170.149L600.893 171.101L608.908 162.859ZM603.374 174.006C604.267 174.857 605.046 175.371 605.857 175.385C606.668 175.398 607.366 175.076 608.044 174.443C608.723 173.81 609.022 173.075 608.985 172.454C608.948 171.833 608.53 171.11 607.733 170.285C606.84 169.435 606.277 168.876 606.042 168.61L602.134 172.554C602.178 172.769 602.672 173.207 603.374 174.006ZM607.595 168.517L608.323 169.221C608.982 169.805 609.596 170.173 610.217 170.136C610.838 170.099 611.536 169.776 612.12 169.118C612.703 168.46 613.046 167.94 613.009 167.319C612.972 166.698 612.554 165.975 611.826 165.271C611.497 164.979 611.168 164.687 610.744 164.369L610.414 164.077L606.772 167.787C606.962 167.838 607.196 168.104 607.595 168.517Z" fill="black"/>
<path d="M621.209 173.59L622.639 175.094L616.256 187.134L616.907 188.124L616.228 188.757L612.924 185.121L613.603 184.488L614.755 185.51L616.254 182.958L612.552 178.91L609.882 180.13L610.863 181.411L610.184 182.044L607.184 178.796L607.863 178.163L608.781 178.918L621.209 173.59ZM619.729 176.453L620.637 174.965L619.096 175.774L613.395 178.423L616.629 181.938L619.729 176.453Z" fill="black"/>
<path d="M618.653 190.731C618.458 189.558 618.643 188.487 619.139 187.398C619.635 186.308 620.415 185.295 621.576 184.384C622.642 183.447 623.796 182.942 624.994 182.652C626.192 182.361 627.384 182.477 628.499 182.878C629.614 183.278 630.557 183.938 631.399 184.979C632.006 185.753 632.658 186.742 633.258 187.922L633.511 188.499L630.828 190.53L630.056 189.61L631.592 187.679C631.548 187.463 631.529 187.153 631.321 186.791C631.112 186.43 630.834 185.948 630.435 185.535C629.897 184.882 629.283 184.514 628.522 184.31C627.762 184.106 626.925 184.188 626.038 184.459C625.15 184.73 624.186 185.287 623.266 186.059C622.346 186.831 621.617 187.654 621.102 188.433C620.563 189.307 620.333 190.162 620.32 190.974C620.306 191.785 620.603 192.577 621.211 193.351C621.679 193.884 622.008 194.176 622.363 194.373C622.717 194.57 622.977 194.741 623.288 194.723L625.183 194.11L625.835 195.1L623.52 196.516C623.355 196.37 623.026 196.079 622.602 195.761C622.152 195.539 621.823 195.247 621.494 194.955C621.165 194.663 620.74 194.346 620.367 193.838C619.379 192.962 618.848 191.903 618.653 190.731Z" fill="black"/>
<path d="M637.677 197.661C638.824 197.561 639.8 197.721 640.725 198.071C641.649 198.42 642.472 199.15 643.08 199.924C643.827 200.939 644.193 201.852 644.319 202.904C644.349 203.931 644.189 204.907 643.624 205.876C643.059 206.845 642.304 207.763 641.168 208.579C640.007 209.49 638.733 210.065 637.535 210.355C636.337 210.646 635.24 210.555 634.125 210.155C633.01 209.754 632.257 209.145 631.58 208.251C630.833 207.236 630.397 206.202 630.272 205.15C630.146 204.098 630.401 203.147 630.871 202.153C631.436 201.184 632.192 200.266 633.232 199.424L631.435 197.007L627.083 200.323L627.918 201.769L627.17 202.282L624.088 198.196L624.837 197.684L625.963 198.801L635.174 191.796L634.409 190.471L635.183 189.863L638.195 193.828L637.421 194.435L636.294 193.318L632.329 196.33L634.126 198.747C635.496 198.197 636.599 197.882 637.677 197.661ZM639.297 199.216C638.055 199.291 636.565 199.91 634.897 201.194C633.469 202.34 632.473 203.397 632.047 204.607C631.621 205.817 631.746 206.869 632.493 207.884C633.265 208.804 634.164 209.249 635.432 209.079C636.674 209.004 638.095 208.265 639.738 207.075C641.165 205.93 642.161 204.873 642.587 203.663C643.014 202.453 642.888 201.4 642.211 200.506C641.534 199.612 640.539 199.141 639.297 199.216Z" fill="black"/>
<path d="M645.626 217.413C645.422 218.173 644.952 219.168 644.431 220.352C644.011 221.156 643.833 221.822 643.636 222.176C643.534 222.556 643.433 222.937 643.502 223.057L643.73 223.729L642.981 224.242L641.652 222.358C641.513 222.117 641.52 221.711 641.768 221.166C642.016 220.622 642.34 219.792 642.81 218.797C643.426 217.638 643.776 216.713 644.049 216.074C644.323 215.434 644.26 214.908 644.146 214.572L643.495 213.582L639.124 216.587L639.839 218.103L639.09 218.615L636.25 214.391L636.998 213.879L638.004 215.065L647.588 208.568L646.944 207.173L647.692 206.66L650.463 210.764L649.714 211.277L648.708 210.09L644.243 213.07L645.103 214.421L651.688 214.555L650.948 213.135L651.697 212.622L654.233 216.46L653.485 216.972L652.453 215.881L645.704 215.6C645.887 216.057 645.829 216.653 645.626 217.413Z" fill="black"/>
<path d="M645.253 226.786C645.318 225.784 645.598 224.739 646.353 223.821C647.014 222.877 647.959 222.01 649.164 221.315C650.394 220.524 651.618 220.139 652.765 220.039C654.007 219.964 655.078 220.149 656.073 220.619C657.067 221.089 657.89 221.819 658.516 222.904C659.49 224.591 659.799 226.099 659.271 227.69C658.769 229.185 657.601 230.501 655.768 231.64C654.538 232.431 653.314 232.816 652.046 232.986C650.804 233.06 649.733 232.875 648.644 232.379C647.649 231.909 646.852 231.084 646.2 230.095C645.504 228.89 645.284 227.812 645.253 226.786ZM654.791 221.6C653.575 221.58 652.015 222.078 650.302 223.147C648.711 224.147 647.619 225.179 647.098 226.363C646.482 227.522 646.607 228.574 647.234 229.659C647.885 230.648 648.854 231.213 650.071 231.234C651.383 231.28 652.847 230.756 654.56 229.687C656.152 228.687 657.243 227.655 657.764 226.471C658.26 225.381 658.255 224.26 657.629 223.175C656.977 222.186 656.103 221.646 654.791 221.6Z" fill="black"/>
<path d="M662.283 231.654L661.759 230.19L662.602 229.703L663.854 231.872C664.063 232.233 664.341 232.715 664.715 233.222C665.088 233.73 665.297 234.091 665.436 234.332C666.245 235.873 666.656 237.002 666.496 237.978C666.337 238.954 665.873 239.542 665.004 240.124C664.281 240.542 663.419 240.718 662.633 240.61C661.848 240.501 661.138 240.107 660.531 239.333C661.157 240.418 661.333 241.28 661.174 242.256C661.04 243.136 660.456 243.795 659.612 244.282C658.528 244.908 657.381 245.008 656.266 244.607C655.151 244.207 654.119 243.115 653.076 241.308C652.867 240.947 652.684 240.49 652.475 240.128C651.988 239.285 651.735 238.708 651.665 238.587L650.413 236.419L651.231 236.027L652.117 237.282L662.283 231.654ZM653.824 240.796C654.45 241.88 655.083 242.559 655.843 242.763C656.604 242.966 657.345 242.86 658.189 242.373C659.032 241.886 659.496 241.297 659.648 240.726C659.801 240.156 659.625 239.294 659.068 238.33C658.442 237.246 658.025 236.523 657.885 236.282L652.996 238.944C653.084 239.375 653.337 239.952 653.824 240.796ZM659.406 236.689L659.867 237.628C660.285 238.351 660.874 238.814 661.444 238.967C662.109 239.145 662.756 239.013 663.599 238.526C664.322 238.108 664.76 237.615 664.913 237.044C665.066 236.474 664.864 235.707 664.307 234.743C664.099 234.382 663.795 233.995 663.612 233.538L663.403 233.177L658.849 235.725C658.989 235.966 659.128 236.207 659.406 236.689Z" fill="black"/>
<path d="M676.842 257.149L676.024 257.541L675.163 256.19L664.745 261.241L665.313 262.921L664.495 263.313L662.213 258.525L663.031 258.133L663.891 259.484L674.405 254.459L671.775 249.069L661.236 254.189L661.804 255.869L660.986 256.261L658.678 251.569L659.496 251.177L660.287 252.407L670.706 247.356L670.207 245.796L671.025 245.404L676.842 257.149Z" fill="black"/>
<path d="M666.538 266.713C666.723 265.642 667.263 264.768 667.993 263.945C668.817 263.147 669.832 262.401 671.107 261.826C672.381 261.25 673.675 260.986 674.866 261.101C676.057 261.217 677.103 261.497 678.046 262.157C678.99 262.817 679.667 263.712 680.103 264.745C680.836 266.571 680.929 268.124 680.141 269.543C679.449 270.987 678.022 272.132 676.075 272.935C674.705 273.485 673.412 273.749 672.221 273.634C671.03 273.518 669.889 273.213 668.946 272.553C668.002 271.892 667.325 270.998 666.794 269.939C666.478 268.836 666.283 267.663 666.538 266.713ZM676.695 263.017C675.434 262.781 673.926 263.09 671.979 263.893C670.248 264.651 668.992 265.537 668.306 266.575C667.621 267.614 667.436 268.685 667.941 269.839C668.447 270.993 669.295 271.628 670.556 271.864C671.817 272.1 673.421 271.816 675.272 270.988C677.003 270.23 678.259 269.344 678.945 268.306C679.631 267.267 679.721 266.171 679.31 265.042C678.805 263.888 677.956 263.253 676.695 263.017Z" fill="black"/>
<path d="M676.448 279.146C674.723 279.499 673.361 279.643 672.385 279.484C671.91 279.356 671.434 279.229 671.2 278.963C670.871 278.671 670.637 278.404 670.454 277.948C670.201 277.371 670.113 276.94 670.094 276.629L671.489 275.984C671.508 276.295 671.691 276.751 671.944 277.328C671.988 277.544 672.152 277.69 672.317 277.836C672.482 277.982 672.672 278.033 672.957 278.109C674.693 278.473 677.71 277.855 681.914 276.231L683.284 275.682L682.722 273.596L683.635 273.229L687.451 283.317L686.538 283.684L685.729 282.143L674.848 286.255L675.296 288.005L674.409 288.276L672.4 282.849L673.287 282.578L674.141 284.334L685.021 280.221L683.72 276.715L682.135 277.309C680.042 278.276 678.172 278.794 676.448 279.146Z" fill="black"/>
<path d="M687.529 287.208L687.22 285.699L688.108 285.428L691.082 294.475L688.438 295.6L688.097 294.592L689.619 293.472L688.262 289.034L683.247 290.644L684.295 293.574L685.874 293.385L686.215 294.393L682.087 295.732L681.746 294.724L683.167 293.984L682.239 290.985L676.983 292.735L678.808 297.705L681.407 297.892L681.412 299.014L678.135 299.46L674.863 289.62L675.751 289.349L676.396 290.744L687.529 287.208Z" fill="black"/>
<path d="M692.315 302.038L691.292 299.014L687.299 299.471L687.009 298.273L691.871 297.233L695.07 308.48L690.271 310.046L689.955 308.943L693.564 307.261L692.782 304.098L681.44 307.272L681.969 309.859L681.081 310.13L679.144 303.296L680.031 303.024L680.853 305.282L692.315 302.038Z" fill="black"/>
<path d="M689.374 317.954L689.198 317.092C688.964 316.826 688.488 316.698 687.823 316.52C687.158 316.342 686.372 316.233 685.396 316.074C684.421 315.914 683.755 315.736 683.28 315.608C682.805 315.481 682.546 315.31 682.501 315.094L681.947 312.603L682.809 312.426L683.131 313.124C683.201 313.244 683.46 313.416 683.815 313.613C684.195 313.715 684.765 313.867 685.5 314.166C686.356 314.395 687.116 314.599 687.781 314.777C688.326 315.025 688.775 315.247 689.105 315.539C689.144 314.633 689.443 313.898 689.906 313.309C690.49 312.651 691.213 312.234 692.075 312.057C693.488 311.723 694.654 311.934 695.382 312.638C696.11 313.342 696.711 314.522 697.089 316.151C697.203 316.487 697.266 317.013 697.328 317.539C697.366 318.16 697.454 318.591 697.568 318.927L698.192 321.539L697.304 321.811L696.685 320.321L685.376 322.994L685.633 324.693L684.797 324.774L683.479 319.43L684.341 319.254L684.909 320.934L689.702 319.774L689.374 317.954ZM696.371 317.69C696.309 317.164 696.246 316.638 696.158 316.207C695.912 315.224 695.564 314.622 695.07 314.184C694.576 313.746 693.765 313.732 692.782 313.978C691.8 314.224 691.077 314.642 690.708 315.256C690.34 315.87 690.231 316.656 690.477 317.639C690.723 318.621 690.856 319.268 690.995 319.509L696.555 318.147L696.371 317.69Z" fill="black"/>
<path d="M698.558 328.156L697.871 325.018L693.859 325.166L693.664 323.993L698.614 323.384L700.857 334.782L695.969 335.917L695.774 334.744L699.496 333.399L699.025 330.216L687.437 332.408L687.75 335.039L686.888 335.215L685.502 328.223L686.365 328.047L687.065 330.373L698.558 328.156Z" fill="black"/>
<path d="M689.195 345.611C689.666 344.617 690.421 343.699 691.385 343.142C692.374 342.491 693.598 342.105 694.986 341.866C696.349 341.722 697.661 341.768 698.75 342.264C699.865 342.664 700.783 343.42 701.555 344.339C702.327 345.259 702.738 346.388 702.908 347.656C703.059 348.613 703.064 349.735 702.897 351.116L702.839 351.712L699.518 351.942L699.349 350.674L701.606 349.853C701.752 349.689 701.854 349.308 701.86 348.903C701.867 348.497 701.925 347.902 701.767 347.35C701.66 346.608 701.338 345.911 700.775 345.352C700.211 344.794 699.502 344.4 698.552 344.146C697.601 343.891 696.574 343.922 695.332 343.996C694.16 344.191 693.177 344.437 692.238 344.899C691.3 345.36 690.646 345.898 690.158 346.582C689.669 347.266 689.535 348.147 689.616 348.983C689.748 349.63 689.811 350.156 690.02 350.517C690.134 350.853 690.368 351.12 690.602 351.386L692.503 351.896L692.482 353.112L689.763 352.995C689.719 352.78 689.631 352.349 689.353 351.867C689.169 351.41 688.961 351.049 688.873 350.617C688.784 350.186 688.601 349.73 688.564 349.109C688.584 347.892 688.7 346.701 689.195 345.611Z" fill="black"/>
<path d="M704.098 359.179L703.166 359.235L702.744 357.39L693.351 358.235L695.738 359.587L702.818 364.336L703.344 364.274L703.397 362.556L704.329 362.5L704.791 367.615L703.86 367.671L703.525 366.258L691.933 367.327L691.905 368.95L690.974 369.006L690.536 363.796L691.468 363.74L691.846 365.369L701.335 364.55L699.017 363.318L691.867 358.448L691.246 358.486L691.193 360.203L690.262 360.259L689.824 355.049L690.756 354.993L691.065 356.502L702.658 355.432L702.754 353.93L703.686 353.874L704.098 359.179Z" fill="black"/>
<path d="M705.379 379.486L700.505 379.81L700.431 378.568L704.19 377.843L704.163 373.762L692.412 374.28L692.358 377.525L691.426 377.581L691.048 370.248L691.98 370.192L692.256 372.201L703.817 371.632L703.946 369.629L704.878 369.574L705.379 379.486Z" fill="black"/>
<path d="M704.298 382.761L704.49 381.285L705.396 381.324L705.358 386.407L704.452 386.368L704.264 384.789L699.276 384.777L699.236 391.387L704.224 391.4L704.416 389.923L705.322 389.962L705.31 394.95L704.404 394.911L704.19 393.428L692.567 393.471L692.375 394.947L691.469 394.908L691.481 389.92L692.387 389.959L692.575 391.538L697.969 391.557L698.008 384.947L692.615 384.928L692.398 386.499L691.491 386.46L691.434 381.352L692.34 381.391L692.554 382.874L704.298 382.761Z" fill="black"/>
<path d="M705.34 401.68L705.306 403.708L692.233 407.641L692.022 408.807L691.116 408.768L691.319 403.831L692.225 403.87L692.318 405.423L695.171 404.66L695.406 399.222L692.726 398.199L692.509 399.77L691.602 399.731L691.772 395.295L692.679 395.334L692.779 396.481L705.34 401.68ZM702.29 402.799L703.919 402.42L702.234 401.867L696.305 399.667L696.058 404.388L702.29 402.799Z" fill="black"/>
<path d="M695.705 414.072C693.994 413.613 692.784 413.187 691.936 412.553C691.511 412.235 691.182 411.943 691.068 411.607C690.86 411.246 690.867 410.84 690.873 410.434C690.931 409.839 690.938 409.433 691.109 409.174L692.637 409.175C692.56 409.461 692.528 409.961 692.47 410.557C692.419 410.747 692.463 410.962 692.603 411.203C692.647 411.419 692.811 411.565 693.071 411.736C694.413 412.809 697.48 413.529 701.96 413.914L703.462 414.011L703.832 411.87L704.738 411.909L703.794 422.656L702.888 422.617L702.845 420.874L691.312 419.821L690.923 421.652L690.017 421.613L690.544 415.846L691.45 415.886L691.441 417.818L702.974 418.872L703.277 415.082L701.585 414.934C699.297 414.729 697.346 414.41 695.705 414.072Z" fill="black"/>
<path d="M697.346 429.994C697.154 431.47 696.633 432.655 695.739 433.332C694.939 434.034 693.862 434.255 692.575 434.114C691.194 433.947 690.155 433.262 689.504 432.272C688.852 431.283 688.683 430.015 688.874 428.539C688.925 428.348 688.976 428.158 688.932 427.943C688.888 427.727 689.034 427.563 689.11 427.278C689.289 426.612 689.372 425.922 689.525 425.352L689.902 422.804L690.782 422.938L690.755 424.561L702.326 426.235L702.828 424.74L703.709 424.874L702.904 430.159L702.023 430.025L701.911 428.161L697.603 427.516L697.346 429.994ZM690.112 427.342C690.061 427.532 689.959 427.912 689.952 428.318C689.767 429.389 689.969 430.156 690.507 430.809C691.045 431.463 691.754 431.857 692.85 431.947C693.826 432.106 694.688 431.93 695.221 431.461C695.849 431.019 696.148 430.284 696.333 429.213L696.627 427.356L690.341 426.487C690.239 426.867 690.163 427.152 690.112 427.342ZM701.051 442.394L700.171 442.26L700.223 440.543L688.748 438.894L688.29 440.605L687.409 440.471L688.144 435.065L689.025 435.2L688.972 436.917L700.448 438.566L700.906 436.855L701.787 436.989L701.051 442.394Z" fill="black"/>
<path d="M698.24 450.605L698.812 449.23L699.668 449.459L698.534 454.452L697.678 454.223L697.801 452.626L692.903 451.517L691.482 457.961L696.38 459.07L696.952 457.695L697.807 457.924L696.698 462.822L695.843 462.593L695.94 461.091L684.573 458.656L684.096 460.056L683.241 459.827L684.349 454.929L685.205 455.159L685.108 456.66L690.411 457.776L691.832 451.332L686.529 450.217L686.001 451.807L685.146 451.578L686.28 446.585L687.135 446.814L687.038 448.316L698.24 450.605Z" fill="black"/>
<path d="M695.208 469.145L694.673 471.141L681.096 472.392L680.601 473.481L679.745 473.252L680.923 468.475L681.779 468.704L681.561 470.276L684.452 470.133L685.757 464.881L683.3 463.408L682.702 464.877L681.847 464.648L682.898 460.346L683.753 460.575L683.638 461.767L695.208 469.145ZM692.051 469.521L693.794 469.479L692.28 468.666L686.941 465.402L685.814 469.989L692.051 469.521Z" fill="black"/>
<path d="M689.682 484.063L690.597 482.17L691.427 482.494L689.869 487.169L681.066 486.949L678.658 486.813L680.761 488.09L687.929 493.27L686.37 497.945L685.54 497.621L685.98 495.6L674.467 493.33L673.775 494.774L672.945 494.45L674.631 489.299L675.461 489.623L675.123 491.264L683.372 493.169L686.939 493.921L684.628 492.284L676.377 486.202L676.778 485.087L686.253 485.08L689.998 485.166L686.635 483.654L678.888 480.254L678.119 481.983L677.289 481.659L678.822 477.079L679.652 477.403L679.339 478.949L689.682 484.063Z" fill="black"/>
<path d="M683.751 504.679L683.026 506.623L669.407 506.132L668.842 507.101L668.012 506.777L669.856 502.178L670.686 502.502L670.278 504.022L673.187 504.191L675.158 499.117L672.897 497.289L672.11 498.707L671.28 498.383L672.901 494.234L673.731 494.558L673.52 495.724L683.751 504.679ZM680.506 504.624L682.198 504.772L680.831 503.794L675.981 499.846L674.283 504.281L680.506 504.624Z" fill="black"/>
<path d="M678.683 513.71L679.515 512.507L680.344 512.831L679.328 515.105C679.105 515.555 679.003 515.935 678.807 516.29C678.533 516.93 678.38 517.5 678.133 518.044C677.389 519.679 676.608 520.692 675.67 521.153C674.757 521.52 673.73 521.55 672.451 521.004C671.551 520.559 670.867 520.07 670.355 519.322C669.842 518.573 669.641 517.806 669.585 516.874C669.529 515.943 669.783 514.992 670.228 514.093C670.425 513.738 670.501 513.453 670.698 513.099C670.895 512.744 670.946 512.554 671.067 512.484L667.323 510.87L666.116 513.093L665.286 512.769L667.79 507.226L668.62 507.551L668.117 509.046L678.683 513.71ZM671.127 514.538C670.683 515.437 670.669 516.248 670.941 517.136C671.212 518.023 671.965 518.633 673.245 519.179C674.239 519.65 675.051 519.663 675.628 519.41C676.325 519.088 676.814 518.404 677.284 517.41C677.481 517.055 677.583 516.675 677.71 516.2C677.787 515.915 677.838 515.725 677.863 515.63L671.75 512.973C671.674 513.258 671.426 513.803 671.127 514.538Z" fill="black"/>
<path d="M662.216 520.808C663.18 520.251 664.283 519.935 665.405 519.93C666.621 519.951 667.857 520.282 669.111 520.924C670.365 521.565 671.378 522.346 672.03 523.335C672.776 524.35 673.092 525.453 673.192 526.601C673.292 527.748 673.081 528.914 672.465 530.073C672.021 530.972 671.36 531.916 670.554 533.024L670.211 533.543L667.279 531.942L667.774 530.853L670.15 531.49C670.366 531.445 670.632 531.211 670.924 530.882C671.216 530.553 671.438 530.103 671.781 529.584C672.175 528.875 672.258 528.184 672.082 527.322C671.975 526.58 671.558 525.857 670.95 525.083C670.317 524.404 669.469 523.77 668.31 523.153C667.22 522.658 666.2 522.283 665.224 522.123C664.249 521.963 663.317 522.019 662.499 522.411C661.706 522.708 661.148 523.272 660.703 524.171C660.43 524.811 660.208 525.26 660.201 525.666C660.099 526.046 660.118 526.357 660.231 526.693L661.567 528.171L660.907 529.115L658.69 527.502C658.767 527.217 658.869 526.837 658.996 526.362C659.123 525.887 659.13 525.481 659.257 525.006C659.359 524.626 659.607 524.081 659.855 523.536C660.471 522.377 661.226 521.459 662.216 520.808Z" fill="black"/>
<path d="M662.588 548.307L661.809 547.793L662.578 546.063L654.472 541.345L655.648 543.799L658.591 551.819L659.041 552.042L660.114 550.7L660.893 551.214L658.289 555.609L657.51 555.095L658.082 553.72L648.038 547.871L647.085 549.144L646.281 548.725L648.91 544.234L649.715 544.654L648.997 546.193L657.173 551.032L655.946 548.768L653.028 540.652L652.413 540.284L651.315 541.721L650.511 541.302L653.165 536.717L653.97 537.136L653.372 538.606L663.417 544.455L664.343 543.277L665.122 543.791L662.588 548.307Z" fill="black"/>
<path d="M655.87 558.933C655.623 559.478 655.495 559.953 655.298 560.308C655.101 560.663 654.905 561.017 654.733 561.277C653.876 562.575 653.026 563.468 652.113 563.834C651.2 564.201 650.293 564.161 649.419 563.622C648.545 563.082 648.128 562.359 647.952 561.497C647.775 560.635 647.884 559.849 648.234 558.924C647.573 559.868 646.799 560.475 645.937 560.652C645.075 560.828 644.289 560.719 643.511 560.205C642.377 559.494 641.7 558.599 641.6 557.452C641.474 556.4 641.831 555.07 642.859 553.512C643.228 552.897 643.666 552.404 644.104 551.91C644.516 551.511 644.903 551.207 645.169 550.973C645.436 550.739 645.582 550.574 645.677 550.6L648.197 552.599L647.683 553.378L645.383 552.456C644.781 552.804 644.222 553.368 643.562 554.311C643.073 554.995 642.99 555.686 643.122 556.332C643.255 556.979 643.818 557.537 644.692 558.077C645.306 558.445 645.971 558.624 646.713 558.517C647.455 558.41 648.108 557.872 648.648 556.998L649.359 555.864L650.233 556.404L649.693 557.278C649.376 557.702 649.249 558.178 649.121 558.653C649.089 559.153 649.152 559.679 649.335 560.136C649.518 560.592 649.917 561.005 650.436 561.348C651.12 561.837 651.811 561.92 652.362 561.762C652.914 561.604 653.447 561.136 653.936 560.452C654.253 560.028 654.475 559.578 654.482 559.172C654.584 558.792 654.565 558.482 654.426 558.241L653.135 556.978L653.795 556.035L656.278 557.413C656.22 558.008 656.023 558.363 655.87 558.933Z" fill="black"/>
<path d="M646.082 571.895L647.199 570.768L647.978 571.282L646.512 573.334C646.22 573.663 645.997 574.113 645.629 574.727C645.286 575.247 645.089 575.601 644.918 575.861C643.94 577.229 642.995 578.096 642.107 578.367C641.22 578.639 640.339 578.504 639.586 577.895C638.902 577.406 638.364 576.753 638.187 575.891C637.985 575.124 638.094 574.338 638.418 573.508C637.758 574.452 636.984 575.059 636.097 575.331C635.234 575.507 634.354 575.373 633.6 574.764C632.587 573.983 632.031 573.019 631.931 571.872C631.831 570.724 632.333 569.229 633.577 567.627C633.869 567.298 634.066 566.944 634.358 566.614C634.967 565.861 635.31 565.342 635.43 565.272L636.897 563.22L637.676 563.735L636.914 565.058L646.082 571.895ZM634.166 568.091C633.385 569.104 633.131 570.054 633.142 570.77C633.154 571.486 633.667 572.235 634.446 572.749C635.199 573.359 635.959 573.562 636.606 573.43C637.252 573.298 637.906 572.76 638.541 571.911C639.321 570.898 639.715 570.189 639.887 569.929L635.359 566.679C635.239 566.748 634.801 567.242 634.166 568.091ZM640.221 571.343L639.586 572.191C639.097 572.875 638.919 573.54 639.051 574.187C639.184 574.834 639.627 575.462 640.31 575.95C640.994 576.439 641.659 576.617 642.281 576.58C642.832 576.422 643.46 575.98 644.12 575.036C644.412 574.707 644.635 574.257 644.832 573.902L645.028 573.548L640.856 570.494C640.805 570.684 640.538 570.919 640.221 571.343Z" fill="black"/>
<path d="M637.307 585.637L636.063 587.239L623.108 582.749L622.283 583.546L621.53 582.937L624.602 579.075L625.355 579.684L624.498 580.982L627.178 582.006L630.567 577.719L628.96 575.354L627.844 576.48L627.09 575.871L629.845 572.433L630.598 573.042L630.007 574.106L637.307 585.637ZM634.222 584.606L635.787 585.229L634.736 583.827L631.244 578.614L628.318 582.311L634.222 584.606Z" fill="black"/>
<path d="M619.955 585.775C621.058 585.459 622.18 585.454 623.32 585.76C624.46 586.065 625.594 586.776 626.677 587.678C627.759 588.579 628.506 589.594 628.917 590.722C629.327 591.851 629.427 592.998 629.217 594.164C629.006 595.33 628.415 596.394 627.66 597.312C627.051 598.065 626.131 598.838 625.091 599.679L624.583 600.052L622.165 597.673L623.015 596.78L625.143 597.962C625.359 597.918 625.695 597.804 626.082 597.5C626.443 597.292 626.856 596.893 627.199 596.373C627.757 595.81 628.056 595.075 628.069 594.264C628.178 593.478 627.976 592.711 627.489 591.868C627.002 591.024 626.42 590.155 625.407 589.375C624.489 588.619 623.641 587.985 622.716 587.635C621.791 587.285 620.91 587.151 620.073 587.232C619.237 587.314 618.514 587.731 617.904 588.485C617.467 588.979 617.149 589.403 617.047 589.783C616.85 590.138 616.869 590.448 616.793 590.733L617.646 592.49L616.726 593.262L615.043 591.181C615.189 591.017 615.386 590.662 615.634 590.117C615.856 589.667 616.053 589.313 616.25 588.958C616.447 588.603 616.764 588.179 617.202 587.685C617.837 586.837 618.852 586.09 619.955 585.775Z" fill="black"/>
<path d="M616.04 605.708C616.355 606.811 616.386 607.838 616.131 608.788C615.876 609.739 615.432 610.638 614.632 611.34C613.782 612.233 612.818 612.79 611.835 613.036C610.853 613.282 609.756 613.192 608.736 612.816C607.717 612.441 606.678 611.756 605.69 610.88C604.633 609.884 603.817 608.748 603.432 607.525C603.021 606.396 602.826 605.223 603.106 604.178C603.291 603.107 603.857 602.138 604.586 601.315C605.437 600.422 606.401 599.866 607.409 599.525C608.391 599.279 609.488 599.369 610.508 599.744C611.528 600.119 612.566 600.805 613.554 601.681L615.667 599.497L611.698 595.683L610.416 596.664L609.783 595.985L613.331 592.25L613.989 592.834L613.037 594.107L621.374 602.146L622.535 601.235L623.168 601.914L619.646 605.554L619.013 604.875L619.965 603.602L616.325 600.081L614.212 602.265C615.193 603.546 615.724 604.605 616.04 605.708ZM614.865 607.43C614.575 606.232 613.715 604.881 612.259 603.473C610.967 602.21 609.644 601.448 608.383 601.212C607.122 600.976 606.019 601.291 605.168 602.184C604.318 603.077 604.064 604.027 604.354 605.225C604.644 606.423 605.504 607.774 607.055 609.208C608.346 610.471 609.575 611.208 610.81 611.539C612.046 611.87 613.054 611.529 613.904 610.636C614.755 609.744 615.035 608.698 614.865 607.43Z" fill="black"/>
<path d="M597.768 616.498C596.982 616.389 595.937 616.109 594.702 615.778C593.846 615.549 593.181 615.371 592.706 615.244C592.326 615.142 592.015 615.16 591.774 615.3L591.077 615.622L590.444 614.943L592.093 613.348C592.334 613.209 592.67 613.095 593.336 613.273C593.906 613.426 594.761 613.655 595.902 613.961C597.112 614.387 598.062 614.642 598.848 614.75C599.513 614.928 600.039 614.866 600.331 614.537L601.156 613.739L597.523 609.812L596.146 610.767L595.513 610.088L599.295 606.62L599.928 607.299L598.906 608.451L606.805 616.984L608.061 616.099L608.694 616.777L605.033 620.176L604.4 619.497L605.352 618.225L601.719 614.297L600.507 615.399L601.399 621.953L602.655 621.067L603.288 621.746L599.894 624.911L599.261 624.232L600.188 623.054L599.441 616.335C599.27 616.595 598.554 616.607 597.768 616.498Z" fill="black"/>
<path d="M588.488 617.678C589.541 617.553 590.612 617.738 591.58 618.303C592.67 618.799 593.563 619.649 594.499 620.715C595.436 621.781 596.037 622.96 596.327 624.159C596.617 625.357 596.622 626.478 596.247 627.498C595.872 628.518 595.306 629.487 594.386 630.259C592.934 631.5 591.374 631.999 589.802 631.781C588.231 631.564 586.768 630.561 585.268 628.936C584.331 627.871 583.731 626.691 583.441 625.493C583.151 624.295 583.146 623.173 583.546 622.058C583.852 620.918 584.487 620.069 585.406 619.297C586.403 618.24 587.436 617.804 588.488 617.678ZM595.05 626.261C594.881 624.993 594.141 623.573 592.805 622.095C591.565 620.642 590.362 619.81 589.152 619.384C587.942 618.958 586.864 619.178 585.944 619.951C585.024 620.723 584.649 621.743 584.819 623.01C584.989 624.278 585.728 625.699 587.038 627.272C588.279 628.725 589.482 629.556 590.692 629.982C591.927 630.313 593.005 630.093 593.925 629.321C594.845 628.549 595.22 627.529 595.05 626.261Z" fill="black"/>
<path d="M586.357 635.136L587.683 634.371L588.29 635.145L586.355 636.663C585.994 636.872 585.581 637.271 585.143 637.765C584.731 638.164 584.344 638.467 584.103 638.606C582.701 639.657 581.642 640.188 580.71 640.244C579.779 640.3 578.974 639.88 578.367 639.107C577.829 638.453 577.532 637.661 577.546 636.849C577.559 636.038 577.858 635.303 578.442 634.645C577.522 635.417 576.609 635.784 575.703 635.744C574.797 635.705 573.992 635.286 573.385 634.512C572.638 633.497 572.323 632.394 572.533 631.228C572.744 630.062 573.696 628.79 575.244 627.575C575.631 627.271 575.992 627.062 576.259 626.828C577.032 626.221 577.514 625.942 577.66 625.778L579.595 624.259L580.108 625.007L578.991 626.134L586.357 635.136ZM575.972 628.279C574.957 629.026 574.442 629.805 574.334 630.59C574.225 631.376 574.427 632.143 575.034 632.917C575.642 633.691 576.256 634.059 576.947 634.143C577.638 634.226 578.335 633.903 579.23 633.226C580.244 632.48 580.898 631.942 581.069 631.682L577.659 627.305C577.278 627.203 576.771 627.577 575.972 628.279ZM580.903 633.064L580.129 633.671C579.476 634.209 579.107 634.823 579.024 635.514C578.941 636.205 579.168 636.877 579.801 637.556C580.339 638.209 580.953 638.577 581.549 638.635C582.145 638.693 582.842 638.37 583.737 637.693C584.124 637.39 584.415 637.06 584.802 636.757L585.069 636.523L581.892 632.412C581.556 632.526 581.29 632.76 580.903 633.064Z" fill="black"/>
<g style="mix-blend-mode:overlay">
<circle cx="171.696" cy="167.151" r="2" fill="black"/>
</g>
<g style="mix-blend-mode:overlay">
<circle cx="576.195" cy="141.521" r="2" fill="black"/>
</g>
</g>
</svg>
